<?xml version="1.0" encoding="UTF-8" standalone="no"?>
<!DOCTYPE svg PUBLIC "-//W3C//DTD SVG 1.1//EN"
 "http://www.w3.org/Graphics/SVG/1.1/DTD/svg11.dtd">
<!-- Generated by graphviz version 2.38.0 (20140413.2041)
 -->
<!-- Title: controllers_diagram Pages: 1 -->
<svg width="666pt" height="597pt"
 viewBox="0.00 0.00 666.04 597.00" xmlns="http://www.w3.org/2000/svg" xmlns:xlink="http://www.w3.org/1999/xlink">
<g id="graph0" class="graph" transform="scale(1 1) rotate(0) translate(241.821 355.5)">
<title>controllers_diagram</title>
<polygon fill="white" stroke="none" points="-241.821,241.5 -241.821,-355.5 424.224,-355.5 424.224,241.5 -241.821,241.5"/>
<!-- _diagram_info -->
<g id="node1" class="node"><title>_diagram_info</title>
<text text-anchor="start" x="211.55" y="144.9" font-family="Times,serif" font-size="13.00">Controllers diagram</text>
<text text-anchor="start" x="211.55" y="157.9" font-family="Times,serif" font-size="13.00">Date: Nov 09 2014 &#45; 23:17</text>
<text text-anchor="start" x="211.55" y="170.9" font-family="Times,serif" font-size="13.00">Migration version: 20141108234944</text>
<text text-anchor="start" x="211.55" y="183.9" font-family="Times,serif" font-size="13.00">Generated by RailRoady 1.2.0</text>
<text text-anchor="start" x="211.55" y="196.9" font-family="Times,serif" font-size="13.00">http://railroady.prestonlee.com</text>
</g>
<!-- API::V1::BaseController -->
<g id="node2" class="node"><title>API::V1::BaseController</title>
<path fill="none" stroke="black" d="M-208.993,220C-208.993,220 -77.0068,220 -77.0068,220 -71.0068,220 -65.0068,214 -65.0068,208 -65.0068,208 -65.0068,142 -65.0068,142 -65.0068,136 -71.0068,130 -77.0068,130 -77.0068,130 -208.993,130 -208.993,130 -214.993,130 -220.993,136 -220.993,142 -220.993,142 -220.993,208 -220.993,208 -220.993,214 -214.993,220 -208.993,220"/>
<text text-anchor="middle" x="-143" y="145.2" font-family="Times,serif" font-size="14.00">API::V1::BaseController</text>
<polyline fill="none" stroke="black" points="-220.993,152 -65.0068,152 "/>
<text text-anchor="start" x="-212.993" y="167.2" font-family="Times,serif" font-size="14.00">current_resource_owner</text>
<polyline fill="none" stroke="black" points="-220.993,174 -65.0068,174 "/>
<polyline fill="none" stroke="black" points="-220.993,198 -65.0068,198 "/>
<text text-anchor="start" x="-212.993" y="213.2" font-family="Times,serif" font-size="14.00">_layout</text>
</g>
<!-- API::V1::BookingsController -->
<g id="node3" class="node"><title>API::V1::BookingsController</title>
<path fill="none" stroke="black" d="M249.776,-86C249.776,-86 408.224,-86 408.224,-86 414.224,-86 420.224,-92 420.224,-98 420.224,-98 420.224,-192 420.224,-192 420.224,-198 414.224,-204 408.224,-204 408.224,-204 249.776,-204 249.776,-204 243.776,-204 237.776,-198 237.776,-192 237.776,-192 237.776,-98 237.776,-98 237.776,-92 243.776,-86 249.776,-86"/>
<text text-anchor="middle" x="329" y="-188.8" font-family="Times,serif" font-size="14.00">API::V1::BookingsController</text>
<polyline fill="none" stroke="black" points="237.776,-182 420.224,-182 "/>
<text text-anchor="start" x="245.776" y="-166.8" font-family="Times,serif" font-size="14.00">create</text>
<text text-anchor="start" x="245.776" y="-152.8" font-family="Times,serif" font-size="14.00">index</text>
<polyline fill="none" stroke="black" points="237.776,-146 420.224,-146 "/>
<polyline fill="none" stroke="black" points="237.776,-122 420.224,-122 "/>
<text text-anchor="start" x="245.776" y="-106.8" font-family="Times,serif" font-size="14.00">_layout</text>
<text text-anchor="start" x="245.776" y="-92.8" font-family="Times,serif" font-size="14.00">booking_params</text>
</g>
<!-- API::V1::PlacesController -->
<g id="node4" class="node"><title>API::V1::PlacesController</title>
<path fill="none" stroke="black" d="M249.731,-239C249.731,-239 390.269,-239 390.269,-239 396.269,-239 402.269,-245 402.269,-251 402.269,-251 402.269,-331 402.269,-331 402.269,-337 396.269,-343 390.269,-343 390.269,-343 249.731,-343 249.731,-343 243.731,-343 237.731,-337 237.731,-331 237.731,-331 237.731,-251 237.731,-251 237.731,-245 243.731,-239 249.731,-239"/>
<text text-anchor="middle" x="320" y="-327.8" font-family="Times,serif" font-size="14.00">API::V1::PlacesController</text>
<polyline fill="none" stroke="black" points="237.731,-321 402.269,-321 "/>
<text text-anchor="start" x="245.731" y="-305.8" font-family="Times,serif" font-size="14.00">index</text>
<text text-anchor="start" x="245.731" y="-291.8" font-family="Times,serif" font-size="14.00">show</text>
<polyline fill="none" stroke="black" points="237.731,-285 402.269,-285 "/>
<polyline fill="none" stroke="black" points="237.731,-261 402.269,-261 "/>
<text text-anchor="start" x="245.731" y="-245.8" font-family="Times,serif" font-size="14.00">_layout</text>
</g>
<!-- API::V1::RatingsController -->
<g id="node5" class="node"><title>API::V1::RatingsController</title>
<path fill="none" stroke="black" d="M12.2241,237C12.2241,237 159.776,237 159.776,237 165.776,237 171.776,231 171.776,225 171.776,225 171.776,145 171.776,145 171.776,139 165.776,133 159.776,133 159.776,133 12.2241,133 12.2241,133 6.22412,133 0.224121,139 0.224121,145 0.224121,145 0.224121,225 0.224121,225 0.224121,231 6.22412,237 12.2241,237"/>
<text text-anchor="middle" x="86" y="148.2" font-family="Times,serif" font-size="14.00">API::V1::RatingsController</text>
<polyline fill="none" stroke="black" points="0.224121,155 171.776,155 "/>
<text text-anchor="start" x="8.22412" y="170.2" font-family="Times,serif" font-size="14.00">create</text>
<polyline fill="none" stroke="black" points="0.224121,177 171.776,177 "/>
<polyline fill="none" stroke="black" points="0.224121,201 171.776,201 "/>
<text text-anchor="start" x="8.22412" y="216.2" font-family="Times,serif" font-size="14.00">_layout</text>
<text text-anchor="start" x="8.22412" y="230.2" font-family="Times,serif" font-size="14.00">rating_params</text>
</g>
<!-- API::V1::UsersController -->
<g id="node6" class="node"><title>API::V1::UsersController</title>
<path fill="none" stroke="black" d="M113.672,101C113.672,101 250.328,101 250.328,101 256.328,101 262.328,95 262.328,89 262.328,89 262.328,-47 262.328,-47 262.328,-53 256.328,-59 250.328,-59 250.328,-59 113.672,-59 113.672,-59 107.672,-59 101.672,-53 101.672,-47 101.672,-47 101.672,89 101.672,89 101.672,95 107.672,101 113.672,101"/>
<text text-anchor="middle" x="182" y="-43.8" font-family="Times,serif" font-size="14.00">API::V1::UsersController</text>
<polyline fill="none" stroke="black" points="101.672,-37 262.328,-37 "/>
<text text-anchor="start" x="109.672" y="-21.8" font-family="Times,serif" font-size="14.00">login</text>
<text text-anchor="start" x="109.672" y="-7.8" font-family="Times,serif" font-size="14.00">logout</text>
<text text-anchor="start" x="109.672" y="6.2" font-family="Times,serif" font-size="14.00">signup</text>
<text text-anchor="start" x="109.672" y="20.2" font-family="Times,serif" font-size="14.00">update</text>
<polyline fill="none" stroke="black" points="101.672,27 262.328,27 "/>
<polyline fill="none" stroke="black" points="101.672,51 262.328,51 "/>
<text text-anchor="start" x="109.672" y="66.2" font-family="Times,serif" font-size="14.00">_layout</text>
<text text-anchor="start" x="109.672" y="80.2" font-family="Times,serif" font-size="14.00">login_params</text>
<text text-anchor="start" x="109.672" y="94.2" font-family="Times,serif" font-size="14.00">signup_params</text>
</g>
<!-- ApplicationController -->
<g id="node7" class="node"><title>ApplicationController</title>
<path fill="none" stroke="black" d="M-225.821,-86C-225.821,-86 -110.179,-86 -110.179,-86 -104.179,-86 -98.1792,-92 -98.1792,-98 -98.1792,-98 -98.1792,-166 -98.1792,-166 -98.1792,-172 -104.179,-178 -110.179,-178 -110.179,-178 -225.821,-178 -225.821,-178 -231.821,-178 -237.821,-172 -237.821,-166 -237.821,-166 -237.821,-98 -237.821,-98 -237.821,-92 -231.821,-86 -225.821,-86"/>
<text text-anchor="middle" x="-168" y="-162.8" font-family="Times,serif" font-size="14.00">ApplicationController</text>
<polyline fill="none" stroke="black" points="-237.821,-156 -98.1792,-156 "/>
<polyline fill="none" stroke="black" points="-237.821,-132 -98.1792,-132 "/>
<polyline fill="none" stroke="black" points="-237.821,-108 -98.1792,-108 "/>
<text text-anchor="start" x="-229.821" y="-92.8" font-family="Times,serif" font-size="14.00">_layout</text>
</g>
<!-- BookingsController -->
<g id="node8" class="node"><title>BookingsController</title>
<path fill="none" stroke="black" d="M-191.61,-205C-191.61,-205 -88.3896,-205 -88.3896,-205 -82.3896,-205 -76.3896,-211 -76.3896,-217 -76.3896,-217 -76.3896,-339 -76.3896,-339 -76.3896,-345 -82.3896,-351 -88.3896,-351 -88.3896,-351 -191.61,-351 -191.61,-351 -197.61,-351 -203.61,-345 -203.61,-339 -203.61,-339 -203.61,-217 -203.61,-217 -203.61,-211 -197.61,-205 -191.61,-205"/>
<text text-anchor="middle" x="-140" y="-335.8" font-family="Times,serif" font-size="14.00">BookingsController</text>
<polyline fill="none" stroke="black" points="-203.61,-329 -76.3896,-329 "/>
<text text-anchor="start" x="-195.61" y="-313.8" font-family="Times,serif" font-size="14.00">approve</text>
<text text-anchor="start" x="-195.61" y="-299.8" font-family="Times,serif" font-size="14.00">approved</text>
<text text-anchor="start" x="-195.61" y="-285.8" font-family="Times,serif" font-size="14.00">canceled</text>
<text text-anchor="start" x="-195.61" y="-271.8" font-family="Times,serif" font-size="14.00">discard</text>
<text text-anchor="start" x="-195.61" y="-257.8" font-family="Times,serif" font-size="14.00">index</text>
<polyline fill="none" stroke="black" points="-203.61,-251 -76.3896,-251 "/>
<polyline fill="none" stroke="black" points="-203.61,-227 -76.3896,-227 "/>
<text text-anchor="start" x="-195.61" y="-211.8" font-family="Times,serif" font-size="14.00">_layout</text>
</g>
<!-- PlacesController -->
<g id="node9" class="node"><title>PlacesController</title>
<path fill="none" stroke="black" d="M114.345,-86C114.345,-86 199.655,-86 199.655,-86 205.655,-86 211.655,-92 211.655,-98 211.655,-98 211.655,-262 211.655,-262 211.655,-268 205.655,-274 199.655,-274 199.655,-274 114.345,-274 114.345,-274 108.345,-274 102.345,-268 102.345,-262 102.345,-262 102.345,-98 102.345,-98 102.345,-92 108.345,-86 114.345,-86"/>
<text text-anchor="middle" x="157" y="-258.8" font-family="Times,serif" font-size="14.00">PlacesController</text>
<polyline fill="none" stroke="black" points="102.345,-252 211.655,-252 "/>
<text text-anchor="start" x="110.345" y="-236.8" font-family="Times,serif" font-size="14.00">create</text>
<text text-anchor="start" x="110.345" y="-222.8" font-family="Times,serif" font-size="14.00">destroy</text>
<text text-anchor="start" x="110.345" y="-208.8" font-family="Times,serif" font-size="14.00">edit</text>
<text text-anchor="start" x="110.345" y="-194.8" font-family="Times,serif" font-size="14.00">index</text>
<text text-anchor="start" x="110.345" y="-180.8" font-family="Times,serif" font-size="14.00">new</text>
<text text-anchor="start" x="110.345" y="-166.8" font-family="Times,serif" font-size="14.00">update</text>
<polyline fill="none" stroke="black" points="102.345,-160 211.655,-160 "/>
<polyline fill="none" stroke="black" points="102.345,-136 211.655,-136 "/>
<text text-anchor="start" x="110.345" y="-120.8" font-family="Times,serif" font-size="14.00">_layout</text>
<text text-anchor="start" x="110.345" y="-106.8" font-family="Times,serif" font-size="14.00">place_params</text>
<text text-anchor="start" x="110.345" y="-92.8" font-family="Times,serif" font-size="14.00">set_place</text>
</g>
<!-- SchedulesController -->
<g id="node10" class="node"><title>SchedulesController</title>
<path fill="none" stroke="black" d="M-56.1553,101C-56.1553,101 50.1553,101 50.1553,101 56.1553,101 62.1553,95 62.1553,89 62.1553,89 62.1553,-75 62.1553,-75 62.1553,-81 56.1553,-87 50.1553,-87 50.1553,-87 -56.1553,-87 -56.1553,-87 -62.1553,-87 -68.1553,-81 -68.1553,-75 -68.1553,-75 -68.1553,89 -68.1553,89 -68.1553,95 -62.1553,101 -56.1553,101"/>
<text text-anchor="middle" x="-3" y="-71.8" font-family="Times,serif" font-size="14.00">SchedulesController</text>
<polyline fill="none" stroke="black" points="-68.1553,-65 62.1553,-65 "/>
<text text-anchor="start" x="-60.1553" y="-49.8" font-family="Times,serif" font-size="14.00">create</text>
<text text-anchor="start" x="-60.1553" y="-35.8" font-family="Times,serif" font-size="14.00">destroy</text>
<text text-anchor="start" x="-60.1553" y="-21.8" font-family="Times,serif" font-size="14.00">edit</text>
<text text-anchor="start" x="-60.1553" y="-7.8" font-family="Times,serif" font-size="14.00">new</text>
<text text-anchor="start" x="-60.1553" y="6.2" font-family="Times,serif" font-size="14.00">update</text>
<polyline fill="none" stroke="black" points="-68.1553,13 62.1553,13 "/>
<polyline fill="none" stroke="black" points="-68.1553,37 62.1553,37 "/>
<text text-anchor="start" x="-60.1553" y="52.2" font-family="Times,serif" font-size="14.00">_layout</text>
<text text-anchor="start" x="-60.1553" y="66.2" font-family="Times,serif" font-size="14.00">batch_params</text>
<text text-anchor="start" x="-60.1553" y="80.2" font-family="Times,serif" font-size="14.00">generate_schedule</text>
<text text-anchor="start" x="-60.1553" y="94.2" font-family="Times,serif" font-size="14.00">schedule_params</text>
</g>
<!-- ServicesController -->
<g id="node11" class="node"><title>ServicesController</title>
<path fill="none" stroke="black" d="M-39.4863,-120C-39.4863,-120 57.4863,-120 57.4863,-120 63.4863,-120 69.4863,-126 69.4863,-132 69.4863,-132 69.4863,-268 69.4863,-268 69.4863,-274 63.4863,-280 57.4863,-280 57.4863,-280 -39.4863,-280 -39.4863,-280 -45.4863,-280 -51.4863,-274 -51.4863,-268 -51.4863,-268 -51.4863,-132 -51.4863,-132 -51.4863,-126 -45.4863,-120 -39.4863,-120"/>
<text text-anchor="middle" x="9" y="-264.8" font-family="Times,serif" font-size="14.00">ServicesController</text>
<polyline fill="none" stroke="black" points="-51.4863,-258 69.4863,-258 "/>
<text text-anchor="start" x="-43.4863" y="-242.8" font-family="Times,serif" font-size="14.00">create</text>
<text text-anchor="start" x="-43.4863" y="-228.8" font-family="Times,serif" font-size="14.00">destroy</text>
<text text-anchor="start" x="-43.4863" y="-214.8" font-family="Times,serif" font-size="14.00">edit</text>
<text text-anchor="start" x="-43.4863" y="-200.8" font-family="Times,serif" font-size="14.00">new</text>
<text text-anchor="start" x="-43.4863" y="-186.8" font-family="Times,serif" font-size="14.00">update</text>
<polyline fill="none" stroke="black" points="-51.4863,-180 69.4863,-180 "/>
<polyline fill="none" stroke="black" points="-51.4863,-156 69.4863,-156 "/>
<text text-anchor="start" x="-43.4863" y="-140.8" font-family="Times,serif" font-size="14.00">_layout</text>
<text text-anchor="start" x="-43.4863" y="-126.8" font-family="Times,serif" font-size="14.00">service_params</text>
</g>
</g>
</svg>
