<?xml version="1.0" encoding="UTF-8" standalone="no"?>
<!DOCTYPE svg PUBLIC "-//W3C//DTD SVG 1.1//EN"
 "http://www.w3.org/Graphics/SVG/1.1/DTD/svg11.dtd">
<!-- Generated by graphviz version 2.38.0 (20140413.2041)
 -->
<!-- Title: controllers_diagram Pages: 1 -->
<svg width="612pt" height="563pt"
 viewBox="0.00 0.00 611.81 563.00" xmlns="http://www.w3.org/2000/svg" xmlns:xlink="http://www.w3.org/1999/xlink">
<g id="graph0" class="graph" transform="scale(1 1) rotate(0) translate(227.993 335.5)">
<title>controllers_diagram</title>
<polygon fill="white" stroke="none" points="-227.993,227.5 -227.993,-335.5 383.821,-335.5 383.821,227.5 -227.993,227.5"/>
<!-- _diagram_info -->
<g id="node1" class="node"><title>_diagram_info</title>
<text text-anchor="start" x="-119.688" y="-187.1" font-family="Times,serif" font-size="13.00">Controllers diagram</text>
<text text-anchor="start" x="-119.688" y="-174.1" font-family="Times,serif" font-size="13.00">Date: Oct 21 2014 &#45; 21:22</text>
<text text-anchor="start" x="-119.688" y="-161.1" font-family="Times,serif" font-size="13.00">Migration version: 20141020054025</text>
<text text-anchor="start" x="-119.688" y="-148.1" font-family="Times,serif" font-size="13.00">Generated by RailRoady 1.2.0</text>
<text text-anchor="start" x="-119.688" y="-135.1" font-family="Times,serif" font-size="13.00">http://railroady.prestonlee.com</text>
</g>
<!-- API::V1::BaseController -->
<g id="node2" class="node"><title>API::V1::BaseController</title>
<path fill="none" stroke="black" d="M-211.993,223C-211.993,223 -80.0068,223 -80.0068,223 -74.0068,223 -68.0068,217 -68.0068,211 -68.0068,211 -68.0068,143 -68.0068,143 -68.0068,137 -74.0068,131 -80.0068,131 -80.0068,131 -211.993,131 -211.993,131 -217.993,131 -223.993,137 -223.993,143 -223.993,143 -223.993,211 -223.993,211 -223.993,217 -217.993,223 -211.993,223"/>
<text text-anchor="middle" x="-146" y="146.2" font-family="Times,serif" font-size="14.00">API::V1::BaseController</text>
<polyline fill="none" stroke="black" points="-223.993,153 -68.0068,153 "/>
<polyline fill="none" stroke="black" points="-223.993,177 -68.0068,177 "/>
<polyline fill="none" stroke="black" points="-223.993,201 -68.0068,201 "/>
<text text-anchor="start" x="-215.993" y="216.2" font-family="Times,serif" font-size="14.00">_layout</text>
</g>
<!-- API::V1::BookingsController -->
<g id="node3" class="node"><title>API::V1::BookingsController</title>
<path fill="none" stroke="black" d="M123.776,-113C123.776,-113 282.224,-113 282.224,-113 288.224,-113 294.224,-119 294.224,-125 294.224,-125 294.224,-205 294.224,-205 294.224,-211 288.224,-217 282.224,-217 282.224,-217 123.776,-217 123.776,-217 117.776,-217 111.776,-211 111.776,-205 111.776,-205 111.776,-125 111.776,-125 111.776,-119 117.776,-113 123.776,-113"/>
<text text-anchor="middle" x="203" y="-201.8" font-family="Times,serif" font-size="14.00">API::V1::BookingsController</text>
<polyline fill="none" stroke="black" points="111.776,-195 294.224,-195 "/>
<text text-anchor="start" x="119.776" y="-179.8" font-family="Times,serif" font-size="14.00">create</text>
<polyline fill="none" stroke="black" points="111.776,-173 294.224,-173 "/>
<polyline fill="none" stroke="black" points="111.776,-149 294.224,-149 "/>
<text text-anchor="start" x="119.776" y="-133.8" font-family="Times,serif" font-size="14.00">_layout</text>
<text text-anchor="start" x="119.776" y="-119.8" font-family="Times,serif" font-size="14.00">booking_params</text>
</g>
<!-- API::V1::PlacesController -->
<g id="node4" class="node"><title>API::V1::PlacesController</title>
<path fill="none" stroke="black" d="M91.731,223C91.731,223 232.269,223 232.269,223 238.269,223 244.269,217 244.269,211 244.269,211 244.269,131 244.269,131 244.269,125 238.269,119 232.269,119 232.269,119 91.731,119 91.731,119 85.731,119 79.731,125 79.731,131 79.731,131 79.731,211 79.731,211 79.731,217 85.731,223 91.731,223"/>
<text text-anchor="middle" x="162" y="134.2" font-family="Times,serif" font-size="14.00">API::V1::PlacesController</text>
<polyline fill="none" stroke="black" points="79.731,141 244.269,141 "/>
<text text-anchor="start" x="87.731" y="156.2" font-family="Times,serif" font-size="14.00">index</text>
<text text-anchor="start" x="87.731" y="170.2" font-family="Times,serif" font-size="14.00">show</text>
<polyline fill="none" stroke="black" points="79.731,177 244.269,177 "/>
<polyline fill="none" stroke="black" points="79.731,201 244.269,201 "/>
<text text-anchor="start" x="87.731" y="216.2" font-family="Times,serif" font-size="14.00">_layout</text>
</g>
<!-- ApplicationController -->
<g id="node5" class="node"><title>ApplicationController</title>
<path fill="none" stroke="black" d="M252.179,79C252.179,79 367.821,79 367.821,79 373.821,79 379.821,73 379.821,67 379.821,67 379.821,-1 379.821,-1 379.821,-7 373.821,-13 367.821,-13 367.821,-13 252.179,-13 252.179,-13 246.179,-13 240.179,-7 240.179,-1 240.179,-1 240.179,67 240.179,67 240.179,73 246.179,79 252.179,79"/>
<text text-anchor="middle" x="310" y="2.2" font-family="Times,serif" font-size="14.00">ApplicationController</text>
<polyline fill="none" stroke="black" points="240.179,9 379.821,9 "/>
<polyline fill="none" stroke="black" points="240.179,33 379.821,33 "/>
<polyline fill="none" stroke="black" points="240.179,57 379.821,57 "/>
<text text-anchor="start" x="248.179" y="72.2" font-family="Times,serif" font-size="14.00">_layout</text>
</g>
<!-- BookingsController -->
<g id="node6" class="node"><title>BookingsController</title>
<path fill="none" stroke="black" d="M-35.6104,-241C-35.6104,-241 67.6104,-241 67.6104,-241 73.6104,-241 79.6104,-247 79.6104,-253 79.6104,-253 79.6104,-319 79.6104,-319 79.6104,-325 73.6104,-331 67.6104,-331 67.6104,-331 -35.6104,-331 -35.6104,-331 -41.6104,-331 -47.6104,-325 -47.6104,-319 -47.6104,-319 -47.6104,-253 -47.6104,-253 -47.6104,-247 -41.6104,-241 -35.6104,-241"/>
<text text-anchor="middle" x="16" y="-315.8" font-family="Times,serif" font-size="14.00">BookingsController</text>
<polyline fill="none" stroke="black" points="-47.6104,-309 79.6104,-309 "/>
<text text-anchor="start" x="-39.6104" y="-293.8" font-family="Times,serif" font-size="14.00">index</text>
<polyline fill="none" stroke="black" points="-47.6104,-287 79.6104,-287 "/>
<polyline fill="none" stroke="black" points="-47.6104,-263 79.6104,-263 "/>
<text text-anchor="start" x="-39.6104" y="-247.8" font-family="Times,serif" font-size="14.00">_layout</text>
</g>
<!-- PlacesController -->
<g id="node7" class="node"><title>PlacesController</title>
<path fill="none" stroke="black" d="M-211.655,79C-211.655,79 -126.345,79 -126.345,79 -120.345,79 -114.345,73 -114.345,67 -114.345,67 -114.345,-83 -114.345,-83 -114.345,-89 -120.345,-95 -126.345,-95 -126.345,-95 -211.655,-95 -211.655,-95 -217.655,-95 -223.655,-89 -223.655,-83 -223.655,-83 -223.655,67 -223.655,67 -223.655,73 -217.655,79 -211.655,79"/>
<text text-anchor="middle" x="-169" y="-79.8" font-family="Times,serif" font-size="14.00">PlacesController</text>
<polyline fill="none" stroke="black" points="-223.655,-73 -114.345,-73 "/>
<text text-anchor="start" x="-215.655" y="-57.8" font-family="Times,serif" font-size="14.00">create</text>
<text text-anchor="start" x="-215.655" y="-43.8" font-family="Times,serif" font-size="14.00">destroy</text>
<text text-anchor="start" x="-215.655" y="-29.8" font-family="Times,serif" font-size="14.00">edit</text>
<text text-anchor="start" x="-215.655" y="-15.8" font-family="Times,serif" font-size="14.00">index</text>
<text text-anchor="start" x="-215.655" y="-1.8" font-family="Times,serif" font-size="14.00">new</text>
<text text-anchor="start" x="-215.655" y="12.2" font-family="Times,serif" font-size="14.00">update</text>
<polyline fill="none" stroke="black" points="-223.655,19 -114.345,19 "/>
<polyline fill="none" stroke="black" points="-223.655,43 -114.345,43 "/>
<text text-anchor="start" x="-215.655" y="58.2" font-family="Times,serif" font-size="14.00">_layout</text>
<text text-anchor="start" x="-215.655" y="72.2" font-family="Times,serif" font-size="14.00">place_params</text>
</g>
<!-- SchedulesController -->
<g id="node8" class="node"><title>SchedulesController</title>
<path fill="none" stroke="black" d="M-68.1553,95C-68.1553,95 38.1553,95 38.1553,95 44.1553,95 50.1553,89 50.1553,83 50.1553,83 50.1553,-81 50.1553,-81 50.1553,-87 44.1553,-93 38.1553,-93 38.1553,-93 -68.1553,-93 -68.1553,-93 -74.1553,-93 -80.1553,-87 -80.1553,-81 -80.1553,-81 -80.1553,83 -80.1553,83 -80.1553,89 -74.1553,95 -68.1553,95"/>
<text text-anchor="middle" x="-15" y="-77.8" font-family="Times,serif" font-size="14.00">SchedulesController</text>
<polyline fill="none" stroke="black" points="-80.1553,-71 50.1553,-71 "/>
<text text-anchor="start" x="-72.1553" y="-55.8" font-family="Times,serif" font-size="14.00">create</text>
<text text-anchor="start" x="-72.1553" y="-41.8" font-family="Times,serif" font-size="14.00">destroy</text>
<text text-anchor="start" x="-72.1553" y="-27.8" font-family="Times,serif" font-size="14.00">edit</text>
<text text-anchor="start" x="-72.1553" y="-13.8" font-family="Times,serif" font-size="14.00">new</text>
<text text-anchor="start" x="-72.1553" y="0.2" font-family="Times,serif" font-size="14.00">update</text>
<polyline fill="none" stroke="black" points="-80.1553,7 50.1553,7 "/>
<polyline fill="none" stroke="black" points="-80.1553,31 50.1553,31 "/>
<text text-anchor="start" x="-72.1553" y="46.2" font-family="Times,serif" font-size="14.00">_layout</text>
<text text-anchor="start" x="-72.1553" y="60.2" font-family="Times,serif" font-size="14.00">batch_params</text>
<text text-anchor="start" x="-72.1553" y="74.2" font-family="Times,serif" font-size="14.00">generate_schedule</text>
<text text-anchor="start" x="-72.1553" y="88.2" font-family="Times,serif" font-size="14.00">schedule_params</text>
</g>
<!-- ServicesController -->
<g id="node9" class="node"><title>ServicesController</title>
<path fill="none" stroke="black" d="M91.5137,79C91.5137,79 188.486,79 188.486,79 194.486,79 200.486,73 200.486,67 200.486,67 200.486,-69 200.486,-69 200.486,-75 194.486,-81 188.486,-81 188.486,-81 91.5137,-81 91.5137,-81 85.5137,-81 79.5137,-75 79.5137,-69 79.5137,-69 79.5137,67 79.5137,67 79.5137,73 85.5137,79 91.5137,79"/>
<text text-anchor="middle" x="140" y="-65.8" font-family="Times,serif" font-size="14.00">ServicesController</text>
<polyline fill="none" stroke="black" points="79.5137,-59 200.486,-59 "/>
<text text-anchor="start" x="87.5137" y="-43.8" font-family="Times,serif" font-size="14.00">create</text>
<text text-anchor="start" x="87.5137" y="-29.8" font-family="Times,serif" font-size="14.00">destroy</text>
<text text-anchor="start" x="87.5137" y="-15.8" font-family="Times,serif" font-size="14.00">edit</text>
<text text-anchor="start" x="87.5137" y="-1.8" font-family="Times,serif" font-size="14.00">new</text>
<text text-anchor="start" x="87.5137" y="12.2" font-family="Times,serif" font-size="14.00">update</text>
<polyline fill="none" stroke="black" points="79.5137,19 200.486,19 "/>
<polyline fill="none" stroke="black" points="79.5137,43 200.486,43 "/>
<text text-anchor="start" x="87.5137" y="58.2" font-family="Times,serif" font-size="14.00">_layout</text>
<text text-anchor="start" x="87.5137" y="72.2" font-family="Times,serif" font-size="14.00">service_params</text>
</g>
</g>
</svg>
