<?xml version="1.0" encoding="UTF-8" standalone="no"?>
<!DOCTYPE svg PUBLIC "-//W3C//DTD SVG 1.1//EN"
 "http://www.w3.org/Graphics/SVG/1.1/DTD/svg11.dtd">
<!-- Generated by graphviz version 2.38.0 (20140413.2041)
 -->
<!-- Title: controllers_diagram Pages: 1 -->
<svg width="636pt" height="603pt"
 viewBox="0.00 0.00 636.26 603.00" xmlns="http://www.w3.org/2000/svg" xmlns:xlink="http://www.w3.org/1999/xlink">
<g id="graph0" class="graph" transform="scale(1 1) rotate(0) translate(227.993 375.5)">
<title>controllers_diagram</title>
<polygon fill="white" stroke="none" points="-227.993,227.5 -227.993,-375.5 408.269,-375.5 408.269,227.5 -227.993,227.5"/>
<!-- _diagram_info -->
<g id="node1" class="node"><title>_diagram_info</title>
<text text-anchor="start" x="88.3123" y="132.9" font-family="Times,serif" font-size="13.00">Controllers diagram</text>
<text text-anchor="start" x="88.3123" y="145.9" font-family="Times,serif" font-size="13.00">Date: Oct 27 2014 &#45; 11:28</text>
<text text-anchor="start" x="88.3123" y="158.9" font-family="Times,serif" font-size="13.00">Migration version: 20141027040817</text>
<text text-anchor="start" x="88.3123" y="171.9" font-family="Times,serif" font-size="13.00">Generated by RailRoady 1.2.0</text>
<text text-anchor="start" x="88.3123" y="184.9" font-family="Times,serif" font-size="13.00">http://railroady.prestonlee.com</text>
</g>
<!-- API::V1::BaseController -->
<g id="node2" class="node"><title>API::V1::BaseController</title>
<path fill="none" stroke="black" d="M-211.993,223C-211.993,223 -80.0068,223 -80.0068,223 -74.0068,223 -68.0068,217 -68.0068,211 -68.0068,211 -68.0068,143 -68.0068,143 -68.0068,137 -74.0068,131 -80.0068,131 -80.0068,131 -211.993,131 -211.993,131 -217.993,131 -223.993,137 -223.993,143 -223.993,143 -223.993,211 -223.993,211 -223.993,217 -217.993,223 -211.993,223"/>
<text text-anchor="middle" x="-146" y="146.2" font-family="Times,serif" font-size="14.00">API::V1::BaseController</text>
<polyline fill="none" stroke="black" points="-223.993,153 -68.0068,153 "/>
<polyline fill="none" stroke="black" points="-223.993,177 -68.0068,177 "/>
<polyline fill="none" stroke="black" points="-223.993,201 -68.0068,201 "/>
<text text-anchor="start" x="-215.993" y="216.2" font-family="Times,serif" font-size="14.00">_layout</text>
</g>
<!-- API::V1::BookingsController -->
<g id="node3" class="node"><title>API::V1::BookingsController</title>
<path fill="none" stroke="black" d="M91.7759,79C91.7759,79 250.224,79 250.224,79 256.224,79 262.224,73 262.224,67 262.224,67 262.224,-13 262.224,-13 262.224,-19 256.224,-25 250.224,-25 250.224,-25 91.7759,-25 91.7759,-25 85.7759,-25 79.7759,-19 79.7759,-13 79.7759,-13 79.7759,67 79.7759,67 79.7759,73 85.7759,79 91.7759,79"/>
<text text-anchor="middle" x="171" y="-9.8" font-family="Times,serif" font-size="14.00">API::V1::BookingsController</text>
<polyline fill="none" stroke="black" points="79.7759,-3 262.224,-3 "/>
<text text-anchor="start" x="87.7759" y="12.2" font-family="Times,serif" font-size="14.00">create</text>
<polyline fill="none" stroke="black" points="79.7759,19 262.224,19 "/>
<polyline fill="none" stroke="black" points="79.7759,43 262.224,43 "/>
<text text-anchor="start" x="87.7759" y="58.2" font-family="Times,serif" font-size="14.00">_layout</text>
<text text-anchor="start" x="87.7759" y="72.2" font-family="Times,serif" font-size="14.00">booking_params</text>
</g>
<!-- API::V1::PlacesController -->
<g id="node4" class="node"><title>API::V1::PlacesController</title>
<path fill="none" stroke="black" d="M251.731,-65C251.731,-65 392.269,-65 392.269,-65 398.269,-65 404.269,-71 404.269,-77 404.269,-77 404.269,-157 404.269,-157 404.269,-163 398.269,-169 392.269,-169 392.269,-169 251.731,-169 251.731,-169 245.731,-169 239.731,-163 239.731,-157 239.731,-157 239.731,-77 239.731,-77 239.731,-71 245.731,-65 251.731,-65"/>
<text text-anchor="middle" x="322" y="-153.8" font-family="Times,serif" font-size="14.00">API::V1::PlacesController</text>
<polyline fill="none" stroke="black" points="239.731,-147 404.269,-147 "/>
<text text-anchor="start" x="247.731" y="-131.8" font-family="Times,serif" font-size="14.00">index</text>
<text text-anchor="start" x="247.731" y="-117.8" font-family="Times,serif" font-size="14.00">show</text>
<polyline fill="none" stroke="black" points="239.731,-111 404.269,-111 "/>
<polyline fill="none" stroke="black" points="239.731,-87 404.269,-87 "/>
<text text-anchor="start" x="247.731" y="-71.8" font-family="Times,serif" font-size="14.00">_layout</text>
</g>
<!-- ApplicationController -->
<g id="node5" class="node"><title>ApplicationController</title>
<path fill="none" stroke="black" d="M252.179,-209C252.179,-209 367.821,-209 367.821,-209 373.821,-209 379.821,-215 379.821,-221 379.821,-221 379.821,-289 379.821,-289 379.821,-295 373.821,-301 367.821,-301 367.821,-301 252.179,-301 252.179,-301 246.179,-301 240.179,-295 240.179,-289 240.179,-289 240.179,-221 240.179,-221 240.179,-215 246.179,-209 252.179,-209"/>
<text text-anchor="middle" x="310" y="-285.8" font-family="Times,serif" font-size="14.00">ApplicationController</text>
<polyline fill="none" stroke="black" points="240.179,-279 379.821,-279 "/>
<polyline fill="none" stroke="black" points="240.179,-255 379.821,-255 "/>
<polyline fill="none" stroke="black" points="240.179,-231 379.821,-231 "/>
<text text-anchor="start" x="248.179" y="-215.8" font-family="Times,serif" font-size="14.00">_layout</text>
</g>
<!-- BookingsController -->
<g id="node6" class="node"><title>BookingsController</title>
<path fill="none" stroke="black" d="M-211.61,-225C-211.61,-225 -108.39,-225 -108.39,-225 -102.39,-225 -96.3896,-231 -96.3896,-237 -96.3896,-237 -96.3896,-359 -96.3896,-359 -96.3896,-365 -102.39,-371 -108.39,-371 -108.39,-371 -211.61,-371 -211.61,-371 -217.61,-371 -223.61,-365 -223.61,-359 -223.61,-359 -223.61,-237 -223.61,-237 -223.61,-231 -217.61,-225 -211.61,-225"/>
<text text-anchor="middle" x="-160" y="-355.8" font-family="Times,serif" font-size="14.00">BookingsController</text>
<polyline fill="none" stroke="black" points="-223.61,-349 -96.3896,-349 "/>
<text text-anchor="start" x="-215.61" y="-333.8" font-family="Times,serif" font-size="14.00">approve</text>
<text text-anchor="start" x="-215.61" y="-319.8" font-family="Times,serif" font-size="14.00">approved</text>
<text text-anchor="start" x="-215.61" y="-305.8" font-family="Times,serif" font-size="14.00">canceled</text>
<text text-anchor="start" x="-215.61" y="-291.8" font-family="Times,serif" font-size="14.00">discard</text>
<text text-anchor="start" x="-215.61" y="-277.8" font-family="Times,serif" font-size="14.00">index</text>
<polyline fill="none" stroke="black" points="-223.61,-271 -96.3896,-271 "/>
<polyline fill="none" stroke="black" points="-223.61,-247 -96.3896,-247 "/>
<text text-anchor="start" x="-215.61" y="-231.8" font-family="Times,serif" font-size="14.00">_layout</text>
</g>
<!-- PlacesController -->
<g id="node7" class="node"><title>PlacesController</title>
<path fill="none" stroke="black" d="M-51.6553,-129C-51.6553,-129 33.6553,-129 33.6553,-129 39.6553,-129 45.6553,-135 45.6553,-141 45.6553,-141 45.6553,-291 45.6553,-291 45.6553,-297 39.6553,-303 33.6553,-303 33.6553,-303 -51.6553,-303 -51.6553,-303 -57.6553,-303 -63.6553,-297 -63.6553,-291 -63.6553,-291 -63.6553,-141 -63.6553,-141 -63.6553,-135 -57.6553,-129 -51.6553,-129"/>
<text text-anchor="middle" x="-9" y="-287.8" font-family="Times,serif" font-size="14.00">PlacesController</text>
<polyline fill="none" stroke="black" points="-63.6553,-281 45.6553,-281 "/>
<text text-anchor="start" x="-55.6553" y="-265.8" font-family="Times,serif" font-size="14.00">create</text>
<text text-anchor="start" x="-55.6553" y="-251.8" font-family="Times,serif" font-size="14.00">destroy</text>
<text text-anchor="start" x="-55.6553" y="-237.8" font-family="Times,serif" font-size="14.00">edit</text>
<text text-anchor="start" x="-55.6553" y="-223.8" font-family="Times,serif" font-size="14.00">index</text>
<text text-anchor="start" x="-55.6553" y="-209.8" font-family="Times,serif" font-size="14.00">new</text>
<text text-anchor="start" x="-55.6553" y="-195.8" font-family="Times,serif" font-size="14.00">update</text>
<polyline fill="none" stroke="black" points="-63.6553,-189 45.6553,-189 "/>
<polyline fill="none" stroke="black" points="-63.6553,-165 45.6553,-165 "/>
<text text-anchor="start" x="-55.6553" y="-149.8" font-family="Times,serif" font-size="14.00">_layout</text>
<text text-anchor="start" x="-55.6553" y="-135.8" font-family="Times,serif" font-size="14.00">place_params</text>
</g>
<!-- SchedulesController -->
<g id="node8" class="node"><title>SchedulesController</title>
<path fill="none" stroke="black" d="M-68.1553,95C-68.1553,95 38.1553,95 38.1553,95 44.1553,95 50.1553,89 50.1553,83 50.1553,83 50.1553,-81 50.1553,-81 50.1553,-87 44.1553,-93 38.1553,-93 38.1553,-93 -68.1553,-93 -68.1553,-93 -74.1553,-93 -80.1553,-87 -80.1553,-81 -80.1553,-81 -80.1553,83 -80.1553,83 -80.1553,89 -74.1553,95 -68.1553,95"/>
<text text-anchor="middle" x="-15" y="-77.8" font-family="Times,serif" font-size="14.00">SchedulesController</text>
<polyline fill="none" stroke="black" points="-80.1553,-71 50.1553,-71 "/>
<text text-anchor="start" x="-72.1553" y="-55.8" font-family="Times,serif" font-size="14.00">create</text>
<text text-anchor="start" x="-72.1553" y="-41.8" font-family="Times,serif" font-size="14.00">destroy</text>
<text text-anchor="start" x="-72.1553" y="-27.8" font-family="Times,serif" font-size="14.00">edit</text>
<text text-anchor="start" x="-72.1553" y="-13.8" font-family="Times,serif" font-size="14.00">new</text>
<text text-anchor="start" x="-72.1553" y="0.2" font-family="Times,serif" font-size="14.00">update</text>
<polyline fill="none" stroke="black" points="-80.1553,7 50.1553,7 "/>
<polyline fill="none" stroke="black" points="-80.1553,31 50.1553,31 "/>
<text text-anchor="start" x="-72.1553" y="46.2" font-family="Times,serif" font-size="14.00">_layout</text>
<text text-anchor="start" x="-72.1553" y="60.2" font-family="Times,serif" font-size="14.00">batch_params</text>
<text text-anchor="start" x="-72.1553" y="74.2" font-family="Times,serif" font-size="14.00">generate_schedule</text>
<text text-anchor="start" x="-72.1553" y="88.2" font-family="Times,serif" font-size="14.00">schedule_params</text>
</g>
<!-- ServicesController -->
<g id="node9" class="node"><title>ServicesController</title>
<path fill="none" stroke="black" d="M91.5137,-65C91.5137,-65 188.486,-65 188.486,-65 194.486,-65 200.486,-71 200.486,-77 200.486,-77 200.486,-213 200.486,-213 200.486,-219 194.486,-225 188.486,-225 188.486,-225 91.5137,-225 91.5137,-225 85.5137,-225 79.5137,-219 79.5137,-213 79.5137,-213 79.5137,-77 79.5137,-77 79.5137,-71 85.5137,-65 91.5137,-65"/>
<text text-anchor="middle" x="140" y="-209.8" font-family="Times,serif" font-size="14.00">ServicesController</text>
<polyline fill="none" stroke="black" points="79.5137,-203 200.486,-203 "/>
<text text-anchor="start" x="87.5137" y="-187.8" font-family="Times,serif" font-size="14.00">create</text>
<text text-anchor="start" x="87.5137" y="-173.8" font-family="Times,serif" font-size="14.00">destroy</text>
<text text-anchor="start" x="87.5137" y="-159.8" font-family="Times,serif" font-size="14.00">edit</text>
<text text-anchor="start" x="87.5137" y="-145.8" font-family="Times,serif" font-size="14.00">new</text>
<text text-anchor="start" x="87.5137" y="-131.8" font-family="Times,serif" font-size="14.00">update</text>
<polyline fill="none" stroke="black" points="79.5137,-125 200.486,-125 "/>
<polyline fill="none" stroke="black" points="79.5137,-101 200.486,-101 "/>
<text text-anchor="start" x="87.5137" y="-85.8" font-family="Times,serif" font-size="14.00">_layout</text>
<text text-anchor="start" x="87.5137" y="-71.8" font-family="Times,serif" font-size="14.00">service_params</text>
</g>
</g>
</svg>
