<?xml version="1.0" encoding="UTF-8" standalone="no"?>
<!DOCTYPE svg PUBLIC "-//W3C//DTD SVG 1.1//EN"
 "http://www.w3.org/Graphics/SVG/1.1/DTD/svg11.dtd">
<!-- Generated by graphviz version 2.38.0 (20140413.2041)
 -->
<!-- Title: models_diagram Pages: 1 -->
<svg width="582pt" height="225pt"
 viewBox="0.00 0.00 582.31 225.00" xmlns="http://www.w3.org/2000/svg" xmlns:xlink="http://www.w3.org/1999/xlink">
<g id="graph0" class="graph" transform="scale(1 1) rotate(0) translate(4 221)">
<title>models_diagram</title>
<polygon fill="white" stroke="none" points="-4,4 -4,-221 578.312,-221 578.312,4 -4,4"/>
<!-- _diagram_info -->
<g id="node1" class="node"><title>_diagram_info</title>
<text text-anchor="start" x="8" y="-202.6" font-family="Times,serif" font-size="13.00">Models diagram</text>
<text text-anchor="start" x="8" y="-189.6" font-family="Times,serif" font-size="13.00">Date: Oct 27 2014 &#45; 11:28</text>
<text text-anchor="start" x="8" y="-176.6" font-family="Times,serif" font-size="13.00">Migration version: 20141027040817</text>
<text text-anchor="start" x="8" y="-163.6" font-family="Times,serif" font-size="13.00">Generated by RailRoady 1.2.0</text>
<text text-anchor="start" x="8" y="-150.6" font-family="Times,serif" font-size="13.00">http://railroady.prestonlee.com</text>
</g>
<!-- Admin -->
<g id="node2" class="node"><title>Admin</title>
<ellipse fill="none" stroke="black" cx="259.688" cy="-180.5" rx="34.8458" ry="18"/>
<text text-anchor="middle" x="259.688" y="-176.3" font-family="Times,serif" font-size="14.00">Admin</text>
</g>
<!-- BookedService -->
<g id="node3" class="node"><title>BookedService</title>
<ellipse fill="none" stroke="black" cx="339.688" cy="-18" rx="64.27" ry="18"/>
<text text-anchor="middle" x="339.688" y="-13.8" font-family="Times,serif" font-size="14.00">BookedService</text>
</g>
<!-- Booking -->
<g id="node4" class="node"><title>Booking</title>
<ellipse fill="none" stroke="black" cx="339.688" cy="-90" rx="40.6421" ry="18"/>
<text text-anchor="middle" x="339.688" y="-85.8" font-family="Times,serif" font-size="14.00">Booking</text>
</g>
<!-- Booking&#45;&gt;BookedService -->
<g id="edge1" class="edge"><title>Booking&#45;&gt;BookedService</title>
<path fill="none" stroke="#2264a2" d="M339.688,-63.6398C339.688,-58.0629 339.688,-52.1319 339.688,-46.4761"/>
<ellipse fill="none" stroke="#2264a2" cx="339.688" cy="-67.6966" rx="4" ry="4"/>
<polygon fill="#2264a2" stroke="#2264a2" points="339.688,-46.1043 344.188,-36.1043 339.688,-41.1043 339.688,-36.1043 339.688,-36.1043 339.688,-36.1043 339.688,-41.1043 335.188,-36.1044 339.688,-46.1043 339.688,-46.1043"/>
</g>
<!-- Place -->
<g id="node5" class="node"><title>Place</title>
<ellipse fill="none" stroke="black" cx="440.688" cy="-180.5" rx="29.0172" ry="18"/>
<text text-anchor="middle" x="440.688" y="-176.3" font-family="Times,serif" font-size="14.00">Place</text>
</g>
<!-- Place&#45;&gt;Booking -->
<g id="edge4" class="edge"><title>Place&#45;&gt;Booking</title>
<path fill="none" stroke="#bd887f" d="M418.039,-159.654C402.236,-145.807 381.138,-127.32 364.816,-113.019"/>
<ellipse fill="none" stroke="#bd887f" cx="421.452" cy="-162.645" rx="4.00002" ry="4.00002"/>
<polygon fill="#bd887f" stroke="#bd887f" points="364.753,-112.963 360.198,-102.988 360.993,-109.668 357.232,-106.373 357.232,-106.373 357.232,-106.373 360.993,-109.668 354.266,-109.757 364.753,-112.963 364.753,-112.963"/>
</g>
<!-- Schedule -->
<g id="node6" class="node"><title>Schedule</title>
<ellipse fill="none" stroke="black" cx="440.688" cy="-90" rx="42.5456" ry="18"/>
<text text-anchor="middle" x="440.688" y="-85.8" font-family="Times,serif" font-size="14.00">Schedule</text>
</g>
<!-- Place&#45;&gt;Schedule -->
<g id="edge2" class="edge"><title>Place&#45;&gt;Schedule</title>
<path fill="none" stroke="#fd3b52" d="M440.688,-154.189C440.688,-142.971 440.688,-129.752 440.688,-118.311"/>
<ellipse fill="none" stroke="#fd3b52" cx="440.688" cy="-158.436" rx="4" ry="4"/>
<polygon fill="#fd3b52" stroke="#fd3b52" points="440.688,-118.011 445.188,-108.011 440.688,-113.011 440.688,-108.011 440.688,-108.011 440.688,-108.011 440.688,-113.011 436.188,-108.011 440.688,-118.011 440.688,-118.011"/>
</g>
<!-- Service -->
<g id="node7" class="node"><title>Service</title>
<ellipse fill="none" stroke="black" cx="537.688" cy="-90" rx="36.7489" ry="18"/>
<text text-anchor="middle" x="537.688" y="-85.8" font-family="Times,serif" font-size="14.00">Service</text>
</g>
<!-- Place&#45;&gt;Service -->
<g id="edge3" class="edge"><title>Place&#45;&gt;Service</title>
<path fill="none" stroke="#f82d5a" d="M462.89,-159.243C477.949,-145.504 497.855,-127.342 513.346,-113.208"/>
<ellipse fill="none" stroke="#f82d5a" cx="459.66" cy="-162.19" rx="4.00002" ry="4.00002"/>
<polygon fill="#f82d5a" stroke="#f82d5a" points="513.608,-112.969 524.029,-109.554 517.302,-109.599 520.996,-106.229 520.996,-106.229 520.996,-106.229 517.302,-109.599 517.963,-102.905 513.608,-112.969 513.608,-112.969"/>
</g>
<!-- User -->
<g id="node8" class="node"><title>User</title>
<ellipse fill="none" stroke="black" cx="339.688" cy="-180.5" rx="27" ry="18"/>
<text text-anchor="middle" x="339.688" y="-176.3" font-family="Times,serif" font-size="14.00">User</text>
</g>
<!-- User&#45;&gt;Booking -->
<g id="edge5" class="edge"><title>User&#45;&gt;Booking</title>
<path fill="none" stroke="#22f60a" d="M339.688,-154.189C339.688,-142.971 339.688,-129.752 339.688,-118.311"/>
<ellipse fill="none" stroke="#22f60a" cx="339.688" cy="-158.436" rx="4" ry="4"/>
<polygon fill="#22f60a" stroke="#22f60a" points="339.688,-118.011 344.188,-108.011 339.688,-113.011 339.688,-108.011 339.688,-108.011 339.688,-108.011 339.688,-113.011 335.188,-108.011 339.688,-118.011 339.688,-118.011"/>
</g>
</g>
</svg>
