<?xml version="1.0" encoding="UTF-8" standalone="no"?>
<!DOCTYPE svg PUBLIC "-//W3C//DTD SVG 1.1//EN"
 "http://www.w3.org/Graphics/SVG/1.1/DTD/svg11.dtd">
<!-- Generated by graphviz version 2.38.0 (20140413.2041)
 -->
<!-- Title: models_diagram Pages: 1 -->
<svg width="995pt" height="621pt"
 viewBox="0.00 0.00 994.70 621.00" xmlns="http://www.w3.org/2000/svg" xmlns:xlink="http://www.w3.org/1999/xlink">
<g id="graph0" class="graph" transform="scale(1 1) rotate(0) translate(4 617)">
<title>models_diagram</title>
<polygon fill="white" stroke="none" points="-4,4 -4,-617 990.7,-617 990.7,4 -4,4"/>
<!-- _diagram_info -->
<g id="node1" class="node"><title>_diagram_info</title>
<text text-anchor="start" x="8" y="-500.6" font-family="Times,serif" font-size="13.00">Models diagram</text>
<text text-anchor="start" x="8" y="-487.6" font-family="Times,serif" font-size="13.00">Date: Oct 27 2014 &#45; 11:28</text>
<text text-anchor="start" x="8" y="-474.6" font-family="Times,serif" font-size="13.00">Migration version: 20141027040817</text>
<text text-anchor="start" x="8" y="-461.6" font-family="Times,serif" font-size="13.00">Generated by RailRoady 1.2.0</text>
<text text-anchor="start" x="8" y="-448.6" font-family="Times,serif" font-size="13.00">http://railroady.prestonlee.com</text>
</g>
<!-- Admin -->
<g id="node2" class="node"><title>Admin</title>
<path fill="none" stroke="black" d="M237.41,-372.5C237.41,-372.5 417.966,-372.5 417.966,-372.5 423.966,-372.5 429.966,-378.5 429.966,-384.5 429.966,-384.5 429.966,-572.5 429.966,-572.5 429.966,-578.5 423.966,-584.5 417.966,-584.5 417.966,-584.5 237.41,-584.5 237.41,-584.5 231.41,-584.5 225.41,-578.5 225.41,-572.5 225.41,-572.5 225.41,-384.5 225.41,-384.5 225.41,-378.5 231.41,-372.5 237.41,-372.5"/>
<text text-anchor="middle" x="327.688" y="-569.3" font-family="Times,serif" font-size="14.00">Admin</text>
<polyline fill="none" stroke="black" points="225.41,-562.5 429.966,-562.5 "/>
<text text-anchor="start" x="233.41" y="-547.3" font-family="Times,serif" font-size="14.00">id :integer</text>
<text text-anchor="start" x="233.41" y="-533.3" font-family="Times,serif" font-size="14.00">email :string</text>
<text text-anchor="start" x="233.41" y="-519.3" font-family="Times,serif" font-size="14.00">encrypted_password :string</text>
<text text-anchor="start" x="233.41" y="-505.3" font-family="Times,serif" font-size="14.00">reset_password_token :string</text>
<text text-anchor="start" x="233.41" y="-491.3" font-family="Times,serif" font-size="14.00">reset_password_sent_at :datetime</text>
<text text-anchor="start" x="233.41" y="-477.3" font-family="Times,serif" font-size="14.00">remember_created_at :datetime</text>
<text text-anchor="start" x="233.41" y="-463.3" font-family="Times,serif" font-size="14.00">sign_in_count :integer</text>
<text text-anchor="start" x="233.41" y="-449.3" font-family="Times,serif" font-size="14.00">current_sign_in_at :datetime</text>
<text text-anchor="start" x="233.41" y="-435.3" font-family="Times,serif" font-size="14.00">last_sign_in_at :datetime</text>
<text text-anchor="start" x="233.41" y="-421.3" font-family="Times,serif" font-size="14.00">current_sign_in_ip :inet</text>
<text text-anchor="start" x="233.41" y="-407.3" font-family="Times,serif" font-size="14.00">last_sign_in_ip :inet</text>
<text text-anchor="start" x="233.41" y="-393.3" font-family="Times,serif" font-size="14.00">created_at :datetime</text>
<text text-anchor="start" x="233.41" y="-379.3" font-family="Times,serif" font-size="14.00">updated_at :datetime</text>
</g>
<!-- BookedService -->
<g id="node3" class="node"><title>BookedService</title>
<path fill="none" stroke="black" d="M505.903,-0.5C505.903,-0.5 623.472,-0.5 623.472,-0.5 629.472,-0.5 635.472,-6.5 635.472,-12.5 635.472,-12.5 635.472,-102.5 635.472,-102.5 635.472,-108.5 629.472,-114.5 623.472,-114.5 623.472,-114.5 505.903,-114.5 505.903,-114.5 499.903,-114.5 493.903,-108.5 493.903,-102.5 493.903,-102.5 493.903,-12.5 493.903,-12.5 493.903,-6.5 499.903,-0.5 505.903,-0.5"/>
<text text-anchor="middle" x="564.688" y="-99.3" font-family="Times,serif" font-size="14.00">BookedService</text>
<polyline fill="none" stroke="black" points="493.903,-92.5 635.472,-92.5 "/>
<text text-anchor="start" x="501.903" y="-77.3" font-family="Times,serif" font-size="14.00">id :integer</text>
<text text-anchor="start" x="501.903" y="-63.3" font-family="Times,serif" font-size="14.00">booking_id :integer</text>
<text text-anchor="start" x="501.903" y="-49.3" font-family="Times,serif" font-size="14.00">service_name :string</text>
<text text-anchor="start" x="501.903" y="-35.3" font-family="Times,serif" font-size="14.00">service_duration :time</text>
<text text-anchor="start" x="501.903" y="-21.3" font-family="Times,serif" font-size="14.00">created_at :datetime</text>
<text text-anchor="start" x="501.903" y="-7.3" font-family="Times,serif" font-size="14.00">updated_at :datetime</text>
</g>
<!-- Booking -->
<g id="node4" class="node"><title>Booking</title>
<path fill="none" stroke="black" d="M503.958,-158.5C503.958,-158.5 625.417,-158.5 625.417,-158.5 631.417,-158.5 637.417,-164.5 637.417,-170.5 637.417,-170.5 637.417,-288.5 637.417,-288.5 637.417,-294.5 631.417,-300.5 625.417,-300.5 625.417,-300.5 503.958,-300.5 503.958,-300.5 497.958,-300.5 491.958,-294.5 491.958,-288.5 491.958,-288.5 491.958,-170.5 491.958,-170.5 491.958,-164.5 497.958,-158.5 503.958,-158.5"/>
<text text-anchor="middle" x="564.688" y="-285.3" font-family="Times,serif" font-size="14.00">Booking</text>
<polyline fill="none" stroke="black" points="491.958,-278.5 637.417,-278.5 "/>
<text text-anchor="start" x="499.958" y="-263.3" font-family="Times,serif" font-size="14.00">id :integer</text>
<text text-anchor="start" x="499.958" y="-249.3" font-family="Times,serif" font-size="14.00">user_id :integer</text>
<text text-anchor="start" x="499.958" y="-235.3" font-family="Times,serif" font-size="14.00">place_id :integer</text>
<text text-anchor="start" x="499.958" y="-221.3" font-family="Times,serif" font-size="14.00">date :datetime</text>
<text text-anchor="start" x="499.958" y="-207.3" font-family="Times,serif" font-size="14.00">created_at :datetime</text>
<text text-anchor="start" x="499.958" y="-193.3" font-family="Times,serif" font-size="14.00">updated_at :datetime</text>
<text text-anchor="start" x="499.958" y="-179.3" font-family="Times,serif" font-size="14.00">confirmed_at :datetime</text>
<text text-anchor="start" x="499.958" y="-165.3" font-family="Times,serif" font-size="14.00">canceled_at :datetime</text>
</g>
<!-- Booking&#45;&gt;BookedService -->
<g id="edge1" class="edge"><title>Booking&#45;&gt;BookedService</title>
<path fill="none" stroke="#901483" d="M564.688,-150.141C564.688,-141.647 564.688,-133.064 564.688,-124.734"/>
<ellipse fill="none" stroke="#901483" cx="564.688" cy="-154.373" rx="4" ry="4"/>
<polygon fill="#901483" stroke="#901483" points="564.688,-124.722 569.188,-114.722 564.688,-119.722 564.688,-114.722 564.688,-114.722 564.688,-114.722 564.688,-119.722 560.188,-114.722 564.688,-124.722 564.688,-124.722"/>
</g>
<!-- Place -->
<g id="node5" class="node"><title>Place</title>
<path fill="none" stroke="black" d="M683,-407.5C683,-407.5 794.376,-407.5 794.376,-407.5 800.376,-407.5 806.376,-413.5 806.376,-419.5 806.376,-419.5 806.376,-537.5 806.376,-537.5 806.376,-543.5 800.376,-549.5 794.376,-549.5 794.376,-549.5 683,-549.5 683,-549.5 677,-549.5 671,-543.5 671,-537.5 671,-537.5 671,-419.5 671,-419.5 671,-413.5 677,-407.5 683,-407.5"/>
<text text-anchor="middle" x="738.688" y="-534.3" font-family="Times,serif" font-size="14.00">Place</text>
<polyline fill="none" stroke="black" points="671,-527.5 806.376,-527.5 "/>
<text text-anchor="start" x="679" y="-512.3" font-family="Times,serif" font-size="14.00">id :integer</text>
<text text-anchor="start" x="679" y="-498.3" font-family="Times,serif" font-size="14.00">name :string</text>
<text text-anchor="start" x="679" y="-484.3" font-family="Times,serif" font-size="14.00">address :string</text>
<text text-anchor="start" x="679" y="-470.3" font-family="Times,serif" font-size="14.00">description :string</text>
<text text-anchor="start" x="679" y="-456.3" font-family="Times,serif" font-size="14.00">mobile_phone :string</text>
<text text-anchor="start" x="679" y="-442.3" font-family="Times,serif" font-size="14.00">land_line :string</text>
<text text-anchor="start" x="679" y="-428.3" font-family="Times,serif" font-size="14.00">created_at :datetime</text>
<text text-anchor="start" x="679" y="-414.3" font-family="Times,serif" font-size="14.00">updated_at :datetime</text>
</g>
<!-- Place&#45;&gt;Booking -->
<g id="edge4" class="edge"><title>Place&#45;&gt;Booking</title>
<path fill="none" stroke="#538064" d="M697.199,-399.986C686.294,-381.238 674.092,-361.554 661.688,-344 653.362,-332.218 644.072,-320.195 634.63,-308.591"/>
<ellipse fill="none" stroke="#538064" cx="699.473" cy="-403.929" rx="4.00002" ry="4.00002"/>
<polygon fill="#538064" stroke="#538064" points="634.435,-308.354 631.553,-297.774 631.257,-304.494 628.079,-300.634 628.079,-300.634 628.079,-300.634 631.257,-304.494 624.605,-303.494 634.435,-308.354 634.435,-308.354"/>
</g>
<!-- Schedule -->
<g id="node6" class="node"><title>Schedule</title>
<path fill="none" stroke="black" d="M674.851,-165.5C674.851,-165.5 788.524,-165.5 788.524,-165.5 794.524,-165.5 800.524,-171.5 800.524,-177.5 800.524,-177.5 800.524,-281.5 800.524,-281.5 800.524,-287.5 794.524,-293.5 788.524,-293.5 788.524,-293.5 674.851,-293.5 674.851,-293.5 668.851,-293.5 662.851,-287.5 662.851,-281.5 662.851,-281.5 662.851,-177.5 662.851,-177.5 662.851,-171.5 668.851,-165.5 674.851,-165.5"/>
<text text-anchor="middle" x="731.688" y="-278.3" font-family="Times,serif" font-size="14.00">Schedule</text>
<polyline fill="none" stroke="black" points="662.851,-271.5 800.524,-271.5 "/>
<text text-anchor="start" x="670.851" y="-256.3" font-family="Times,serif" font-size="14.00">id :integer</text>
<text text-anchor="start" x="670.851" y="-242.3" font-family="Times,serif" font-size="14.00">day_of_week :integer</text>
<text text-anchor="start" x="670.851" y="-228.3" font-family="Times,serif" font-size="14.00">start_time :time</text>
<text text-anchor="start" x="670.851" y="-214.3" font-family="Times,serif" font-size="14.00">end_time :time</text>
<text text-anchor="start" x="670.851" y="-200.3" font-family="Times,serif" font-size="14.00">place_id :integer</text>
<text text-anchor="start" x="670.851" y="-186.3" font-family="Times,serif" font-size="14.00">created_at :datetime</text>
<text text-anchor="start" x="670.851" y="-172.3" font-family="Times,serif" font-size="14.00">updated_at :datetime</text>
</g>
<!-- Place&#45;&gt;Schedule -->
<g id="edge2" class="edge"><title>Place&#45;&gt;Schedule</title>
<path fill="none" stroke="#4aa8b9" d="M736.471,-399.294C735.604,-368.675 734.614,-333.746 733.76,-303.636"/>
<ellipse fill="none" stroke="#4aa8b9" cx="736.587" cy="-403.382" rx="4" ry="4"/>
<polygon fill="#4aa8b9" stroke="#4aa8b9" points="733.76,-303.619 737.975,-293.495 733.618,-298.621 733.477,-293.623 733.477,-293.623 733.477,-293.623 733.618,-298.621 728.978,-293.75 733.76,-303.619 733.76,-303.619"/>
</g>
<!-- Service -->
<g id="node7" class="node"><title>Service</title>
<path fill="none" stroke="black" d="M830.676,-151.5C830.676,-151.5 974.7,-151.5 974.7,-151.5 980.7,-151.5 986.7,-157.5 986.7,-163.5 986.7,-163.5 986.7,-295.5 986.7,-295.5 986.7,-301.5 980.7,-307.5 974.7,-307.5 974.7,-307.5 830.676,-307.5 830.676,-307.5 824.676,-307.5 818.676,-301.5 818.676,-295.5 818.676,-295.5 818.676,-163.5 818.676,-163.5 818.676,-157.5 824.676,-151.5 830.676,-151.5"/>
<text text-anchor="middle" x="902.688" y="-292.3" font-family="Times,serif" font-size="14.00">Service</text>
<polyline fill="none" stroke="black" points="818.676,-285.5 986.7,-285.5 "/>
<text text-anchor="start" x="826.676" y="-270.3" font-family="Times,serif" font-size="14.00">id :integer</text>
<text text-anchor="start" x="826.676" y="-256.3" font-family="Times,serif" font-size="14.00">name :string</text>
<text text-anchor="start" x="826.676" y="-242.3" font-family="Times,serif" font-size="14.00">minimum_amount :integer</text>
<text text-anchor="start" x="826.676" y="-228.3" font-family="Times,serif" font-size="14.00">maximum_amount :integer</text>
<text text-anchor="start" x="826.676" y="-214.3" font-family="Times,serif" font-size="14.00">place_id :integer</text>
<text text-anchor="start" x="826.676" y="-200.3" font-family="Times,serif" font-size="14.00">created_at :datetime</text>
<text text-anchor="start" x="826.676" y="-186.3" font-family="Times,serif" font-size="14.00">updated_at :datetime</text>
<text text-anchor="start" x="826.676" y="-172.3" font-family="Times,serif" font-size="14.00">kind :integer</text>
<text text-anchor="start" x="826.676" y="-158.3" font-family="Times,serif" font-size="14.00">duration :time</text>
</g>
<!-- Place&#45;&gt;Service -->
<g id="edge3" class="edge"><title>Place&#45;&gt;Service</title>
<path fill="none" stroke="#adc6c4" d="M789.9,-400.369C807.651,-373.635 827.653,-343.51 845.83,-316.133"/>
<ellipse fill="none" stroke="#adc6c4" cx="787.457" cy="-404.048" rx="4.00002" ry="4.00002"/>
<polygon fill="#adc6c4" stroke="#adc6c4" points="845.877,-316.062 855.157,-310.221 848.643,-311.897 851.409,-307.731 851.409,-307.731 851.409,-307.731 848.643,-311.897 847.66,-305.242 845.877,-316.062 845.877,-316.062"/>
</g>
<!-- User -->
<g id="node8" class="node"><title>User</title>
<path fill="none" stroke="black" d="M460.41,-344.5C460.41,-344.5 640.966,-344.5 640.966,-344.5 646.966,-344.5 652.966,-350.5 652.966,-356.5 652.966,-356.5 652.966,-600.5 652.966,-600.5 652.966,-606.5 646.966,-612.5 640.966,-612.5 640.966,-612.5 460.41,-612.5 460.41,-612.5 454.41,-612.5 448.41,-606.5 448.41,-600.5 448.41,-600.5 448.41,-356.5 448.41,-356.5 448.41,-350.5 454.41,-344.5 460.41,-344.5"/>
<text text-anchor="middle" x="550.688" y="-597.3" font-family="Times,serif" font-size="14.00">User</text>
<polyline fill="none" stroke="black" points="448.41,-590.5 652.966,-590.5 "/>
<text text-anchor="start" x="456.41" y="-575.3" font-family="Times,serif" font-size="14.00">id :integer</text>
<text text-anchor="start" x="456.41" y="-561.3" font-family="Times,serif" font-size="14.00">email :string</text>
<text text-anchor="start" x="456.41" y="-547.3" font-family="Times,serif" font-size="14.00">encrypted_password :string</text>
<text text-anchor="start" x="456.41" y="-533.3" font-family="Times,serif" font-size="14.00">first_name :string</text>
<text text-anchor="start" x="456.41" y="-519.3" font-family="Times,serif" font-size="14.00">last_name :string</text>
<text text-anchor="start" x="456.41" y="-505.3" font-family="Times,serif" font-size="14.00">phone_number :string</text>
<text text-anchor="start" x="456.41" y="-491.3" font-family="Times,serif" font-size="14.00">gender :string</text>
<text text-anchor="start" x="456.41" y="-477.3" font-family="Times,serif" font-size="14.00">reset_password_token :string</text>
<text text-anchor="start" x="456.41" y="-463.3" font-family="Times,serif" font-size="14.00">reset_password_sent_at :datetime</text>
<text text-anchor="start" x="456.41" y="-449.3" font-family="Times,serif" font-size="14.00">remember_created_at :datetime</text>
<text text-anchor="start" x="456.41" y="-435.3" font-family="Times,serif" font-size="14.00">sign_in_count :integer</text>
<text text-anchor="start" x="456.41" y="-421.3" font-family="Times,serif" font-size="14.00">current_sign_in_at :datetime</text>
<text text-anchor="start" x="456.41" y="-407.3" font-family="Times,serif" font-size="14.00">last_sign_in_at :datetime</text>
<text text-anchor="start" x="456.41" y="-393.3" font-family="Times,serif" font-size="14.00">current_sign_in_ip :inet</text>
<text text-anchor="start" x="456.41" y="-379.3" font-family="Times,serif" font-size="14.00">last_sign_in_ip :inet</text>
<text text-anchor="start" x="456.41" y="-365.3" font-family="Times,serif" font-size="14.00">created_at :datetime</text>
<text text-anchor="start" x="456.41" y="-351.3" font-family="Times,serif" font-size="14.00">updated_at :datetime</text>
</g>
<!-- User&#45;&gt;Booking -->
<g id="edge5" class="edge"><title>User&#45;&gt;Booking</title>
<path fill="none" stroke="#975eac" d="M558.699,-336.157C559.187,-327.54 559.669,-319.042 560.134,-310.834"/>
<ellipse fill="none" stroke="#975eac" cx="558.467" cy="-340.246" rx="4" ry="4"/>
<polygon fill="#975eac" stroke="#975eac" points="560.148,-310.591 565.207,-300.861 560.431,-305.599 560.714,-300.607 560.714,-300.607 560.714,-300.607 560.431,-305.599 556.221,-300.352 560.148,-310.591 560.148,-310.591"/>
</g>
</g>
</svg>
