<?xml version="1.0" encoding="UTF-8" standalone="no"?>
<!DOCTYPE svg PUBLIC "-//W3C//DTD SVG 1.1//EN"
 "http://www.w3.org/Graphics/SVG/1.1/DTD/svg11.dtd">
<!-- Generated by graphviz version 2.38.0 (20140413.2041)
 -->
<!-- Title: models_diagram Pages: 1 -->
<svg width="1094pt" height="621pt"
 viewBox="0.00 0.00 1094.46 621.00" xmlns="http://www.w3.org/2000/svg" xmlns:xlink="http://www.w3.org/1999/xlink">
<g id="graph0" class="graph" transform="scale(1 1) rotate(0) translate(4 617)">
<title>models_diagram</title>
<polygon fill="white" stroke="none" points="-4,4 -4,-617 1090.46,-617 1090.46,4 -4,4"/>
<!-- _diagram_info -->
<g id="node1" class="node"><title>_diagram_info</title>
<text text-anchor="start" x="8" y="-500.6" font-family="Times,serif" font-size="13.00">Models diagram</text>
<text text-anchor="start" x="8" y="-487.6" font-family="Times,serif" font-size="13.00">Date: Nov 09 2014 &#45; 23:17</text>
<text text-anchor="start" x="8" y="-474.6" font-family="Times,serif" font-size="13.00">Migration version: 20141108234944</text>
<text text-anchor="start" x="8" y="-461.6" font-family="Times,serif" font-size="13.00">Generated by RailRoady 1.2.0</text>
<text text-anchor="start" x="8" y="-448.6" font-family="Times,serif" font-size="13.00">http://railroady.prestonlee.com</text>
</g>
<!-- Admin -->
<g id="node2" class="node"><title>Admin</title>
<path fill="none" stroke="black" d="M237.172,-372.5C237.172,-372.5 417.728,-372.5 417.728,-372.5 423.728,-372.5 429.728,-378.5 429.728,-384.5 429.728,-384.5 429.728,-572.5 429.728,-572.5 429.728,-578.5 423.728,-584.5 417.728,-584.5 417.728,-584.5 237.172,-584.5 237.172,-584.5 231.172,-584.5 225.172,-578.5 225.172,-572.5 225.172,-572.5 225.172,-384.5 225.172,-384.5 225.172,-378.5 231.172,-372.5 237.172,-372.5"/>
<text text-anchor="middle" x="327.45" y="-569.3" font-family="Times,serif" font-size="14.00">Admin</text>
<polyline fill="none" stroke="black" points="225.172,-562.5 429.728,-562.5 "/>
<text text-anchor="start" x="233.172" y="-547.3" font-family="Times,serif" font-size="14.00">id :integer</text>
<text text-anchor="start" x="233.172" y="-533.3" font-family="Times,serif" font-size="14.00">email :string</text>
<text text-anchor="start" x="233.172" y="-519.3" font-family="Times,serif" font-size="14.00">encrypted_password :string</text>
<text text-anchor="start" x="233.172" y="-505.3" font-family="Times,serif" font-size="14.00">reset_password_token :string</text>
<text text-anchor="start" x="233.172" y="-491.3" font-family="Times,serif" font-size="14.00">reset_password_sent_at :datetime</text>
<text text-anchor="start" x="233.172" y="-477.3" font-family="Times,serif" font-size="14.00">remember_created_at :datetime</text>
<text text-anchor="start" x="233.172" y="-463.3" font-family="Times,serif" font-size="14.00">sign_in_count :integer</text>
<text text-anchor="start" x="233.172" y="-449.3" font-family="Times,serif" font-size="14.00">current_sign_in_at :datetime</text>
<text text-anchor="start" x="233.172" y="-435.3" font-family="Times,serif" font-size="14.00">last_sign_in_at :datetime</text>
<text text-anchor="start" x="233.172" y="-421.3" font-family="Times,serif" font-size="14.00">current_sign_in_ip :inet</text>
<text text-anchor="start" x="233.172" y="-407.3" font-family="Times,serif" font-size="14.00">last_sign_in_ip :inet</text>
<text text-anchor="start" x="233.172" y="-393.3" font-family="Times,serif" font-size="14.00">created_at :datetime</text>
<text text-anchor="start" x="233.172" y="-379.3" font-family="Times,serif" font-size="14.00">updated_at :datetime</text>
</g>
<!-- BookedService -->
<g id="node3" class="node"><title>BookedService</title>
<path fill="none" stroke="black" d="M462.665,-0.5C462.665,-0.5 580.234,-0.5 580.234,-0.5 586.234,-0.5 592.234,-6.5 592.234,-12.5 592.234,-12.5 592.234,-102.5 592.234,-102.5 592.234,-108.5 586.234,-114.5 580.234,-114.5 580.234,-114.5 462.665,-114.5 462.665,-114.5 456.665,-114.5 450.665,-108.5 450.665,-102.5 450.665,-102.5 450.665,-12.5 450.665,-12.5 450.665,-6.5 456.665,-0.5 462.665,-0.5"/>
<text text-anchor="middle" x="521.45" y="-99.3" font-family="Times,serif" font-size="14.00">BookedService</text>
<polyline fill="none" stroke="black" points="450.665,-92.5 592.234,-92.5 "/>
<text text-anchor="start" x="458.665" y="-77.3" font-family="Times,serif" font-size="14.00">id :integer</text>
<text text-anchor="start" x="458.665" y="-63.3" font-family="Times,serif" font-size="14.00">booking_id :integer</text>
<text text-anchor="start" x="458.665" y="-49.3" font-family="Times,serif" font-size="14.00">service_name :string</text>
<text text-anchor="start" x="458.665" y="-35.3" font-family="Times,serif" font-size="14.00">service_duration :time</text>
<text text-anchor="start" x="458.665" y="-21.3" font-family="Times,serif" font-size="14.00">created_at :datetime</text>
<text text-anchor="start" x="458.665" y="-7.3" font-family="Times,serif" font-size="14.00">updated_at :datetime</text>
</g>
<!-- Booking -->
<g id="node4" class="node"><title>Booking</title>
<path fill="none" stroke="black" d="M460.72,-158.5C460.72,-158.5 582.179,-158.5 582.179,-158.5 588.179,-158.5 594.179,-164.5 594.179,-170.5 594.179,-170.5 594.179,-288.5 594.179,-288.5 594.179,-294.5 588.179,-300.5 582.179,-300.5 582.179,-300.5 460.72,-300.5 460.72,-300.5 454.72,-300.5 448.72,-294.5 448.72,-288.5 448.72,-288.5 448.72,-170.5 448.72,-170.5 448.72,-164.5 454.72,-158.5 460.72,-158.5"/>
<text text-anchor="middle" x="521.45" y="-285.3" font-family="Times,serif" font-size="14.00">Booking</text>
<polyline fill="none" stroke="black" points="448.72,-278.5 594.179,-278.5 "/>
<text text-anchor="start" x="456.72" y="-263.3" font-family="Times,serif" font-size="14.00">id :integer</text>
<text text-anchor="start" x="456.72" y="-249.3" font-family="Times,serif" font-size="14.00">user_id :integer</text>
<text text-anchor="start" x="456.72" y="-235.3" font-family="Times,serif" font-size="14.00">place_id :integer</text>
<text text-anchor="start" x="456.72" y="-221.3" font-family="Times,serif" font-size="14.00">date :datetime</text>
<text text-anchor="start" x="456.72" y="-207.3" font-family="Times,serif" font-size="14.00">created_at :datetime</text>
<text text-anchor="start" x="456.72" y="-193.3" font-family="Times,serif" font-size="14.00">updated_at :datetime</text>
<text text-anchor="start" x="456.72" y="-179.3" font-family="Times,serif" font-size="14.00">confirmed_at :datetime</text>
<text text-anchor="start" x="456.72" y="-165.3" font-family="Times,serif" font-size="14.00">canceled_at :datetime</text>
</g>
<!-- Booking&#45;&gt;BookedService -->
<g id="edge1" class="edge"><title>Booking&#45;&gt;BookedService</title>
<path fill="none" stroke="#c07757" d="M521.45,-150.141C521.45,-141.647 521.45,-133.064 521.45,-124.734"/>
<ellipse fill="none" stroke="#c07757" cx="521.45" cy="-154.373" rx="4" ry="4"/>
<polygon fill="#c07757" stroke="#c07757" points="521.45,-124.722 525.95,-114.722 521.45,-119.722 521.45,-114.722 521.45,-114.722 521.45,-114.722 521.45,-119.722 516.95,-114.722 521.45,-124.722 521.45,-124.722"/>
</g>
<!-- Place -->
<g id="node5" class="node"><title>Place</title>
<path fill="none" stroke="black" d="M740.013,-379.5C740.013,-379.5 866.886,-379.5 866.886,-379.5 872.886,-379.5 878.886,-385.5 878.886,-391.5 878.886,-391.5 878.886,-565.5 878.886,-565.5 878.886,-571.5 872.886,-577.5 866.886,-577.5 866.886,-577.5 740.013,-577.5 740.013,-577.5 734.013,-577.5 728.013,-571.5 728.013,-565.5 728.013,-565.5 728.013,-391.5 728.013,-391.5 728.013,-385.5 734.013,-379.5 740.013,-379.5"/>
<text text-anchor="middle" x="803.45" y="-562.3" font-family="Times,serif" font-size="14.00">Place</text>
<polyline fill="none" stroke="black" points="728.013,-555.5 878.886,-555.5 "/>
<text text-anchor="start" x="736.013" y="-540.3" font-family="Times,serif" font-size="14.00">id :integer</text>
<text text-anchor="start" x="736.013" y="-526.3" font-family="Times,serif" font-size="14.00">name :string</text>
<text text-anchor="start" x="736.013" y="-512.3" font-family="Times,serif" font-size="14.00">address :string</text>
<text text-anchor="start" x="736.013" y="-498.3" font-family="Times,serif" font-size="14.00">description :string</text>
<text text-anchor="start" x="736.013" y="-484.3" font-family="Times,serif" font-size="14.00">mobile_phone :string</text>
<text text-anchor="start" x="736.013" y="-470.3" font-family="Times,serif" font-size="14.00">land_line :string</text>
<text text-anchor="start" x="736.013" y="-456.3" font-family="Times,serif" font-size="14.00">created_at :datetime</text>
<text text-anchor="start" x="736.013" y="-442.3" font-family="Times,serif" font-size="14.00">updated_at :datetime</text>
<text text-anchor="start" x="736.013" y="-428.3" font-family="Times,serif" font-size="14.00">photo1 :integer</text>
<text text-anchor="start" x="736.013" y="-414.3" font-family="Times,serif" font-size="14.00">photo2 :integer</text>
<text text-anchor="start" x="736.013" y="-400.3" font-family="Times,serif" font-size="14.00">photo3 :integer</text>
<text text-anchor="start" x="736.013" y="-386.3" font-family="Times,serif" font-size="14.00">rating_average :decimal</text>
</g>
<!-- Place&#45;&gt;Booking -->
<g id="edge4" class="edge"><title>Place&#45;&gt;Booking</title>
<path fill="none" stroke="#34a6bd" d="M721.994,-395.519C702.796,-377.746 681.937,-359.613 661.45,-344 637.018,-325.38 626.8,-326.727 602.45,-308 601.968,-307.629 601.485,-307.256 601.003,-306.88"/>
<ellipse fill="none" stroke="#34a6bd" cx="724.971" cy="-398.292" rx="4.00002" ry="4.00002"/>
<polygon fill="#34a6bd" stroke="#34a6bd" points="600.978,-306.861 595.992,-297.094 597.078,-303.733 593.177,-300.605 593.177,-300.605 593.177,-300.605 597.078,-303.733 590.362,-304.115 600.978,-306.861 600.978,-306.861"/>
</g>
<!-- Rating -->
<g id="node6" class="node"><title>Rating</title>
<path fill="none" stroke="black" d="M623.944,-172.5C623.944,-172.5 732.955,-172.5 732.955,-172.5 738.955,-172.5 744.955,-178.5 744.955,-184.5 744.955,-184.5 744.955,-274.5 744.955,-274.5 744.955,-280.5 738.955,-286.5 732.955,-286.5 732.955,-286.5 623.944,-286.5 623.944,-286.5 617.944,-286.5 611.944,-280.5 611.944,-274.5 611.944,-274.5 611.944,-184.5 611.944,-184.5 611.944,-178.5 617.944,-172.5 623.944,-172.5"/>
<text text-anchor="middle" x="678.45" y="-271.3" font-family="Times,serif" font-size="14.00">Rating</text>
<polyline fill="none" stroke="black" points="611.944,-264.5 744.955,-264.5 "/>
<text text-anchor="start" x="619.944" y="-249.3" font-family="Times,serif" font-size="14.00">id :integer</text>
<text text-anchor="start" x="619.944" y="-235.3" font-family="Times,serif" font-size="14.00">place_id :integer</text>
<text text-anchor="start" x="619.944" y="-221.3" font-family="Times,serif" font-size="14.00">user_id :integer</text>
<text text-anchor="start" x="619.944" y="-207.3" font-family="Times,serif" font-size="14.00">value :integer</text>
<text text-anchor="start" x="619.944" y="-193.3" font-family="Times,serif" font-size="14.00">created_at :datetime</text>
<text text-anchor="start" x="619.944" y="-179.3" font-family="Times,serif" font-size="14.00">updated_at :datetime</text>
</g>
<!-- Place&#45;&gt;Rating -->
<g id="edge5" class="edge"><title>Place&#45;&gt;Rating</title>
<path fill="none" stroke="#79dfd2" d="M749.934,-371.754C736.844,-345.887 723.216,-318.959 711.414,-295.637"/>
<ellipse fill="none" stroke="#79dfd2" cx="751.881" cy="-375.6" rx="4.00002" ry="4.00002"/>
<polygon fill="#79dfd2" stroke="#79dfd2" points="711.331,-295.473 710.83,-284.519 709.073,-291.012 706.815,-286.551 706.815,-286.551 706.815,-286.551 709.073,-291.012 702.8,-288.583 711.331,-295.473 711.331,-295.473"/>
</g>
<!-- Schedule -->
<g id="node7" class="node"><title>Schedule</title>
<path fill="none" stroke="black" d="M774.613,-165.5C774.613,-165.5 888.286,-165.5 888.286,-165.5 894.286,-165.5 900.286,-171.5 900.286,-177.5 900.286,-177.5 900.286,-281.5 900.286,-281.5 900.286,-287.5 894.286,-293.5 888.286,-293.5 888.286,-293.5 774.613,-293.5 774.613,-293.5 768.613,-293.5 762.613,-287.5 762.613,-281.5 762.613,-281.5 762.613,-177.5 762.613,-177.5 762.613,-171.5 768.613,-165.5 774.613,-165.5"/>
<text text-anchor="middle" x="831.45" y="-278.3" font-family="Times,serif" font-size="14.00">Schedule</text>
<polyline fill="none" stroke="black" points="762.613,-271.5 900.286,-271.5 "/>
<text text-anchor="start" x="770.613" y="-256.3" font-family="Times,serif" font-size="14.00">id :integer</text>
<text text-anchor="start" x="770.613" y="-242.3" font-family="Times,serif" font-size="14.00">day_of_week :integer</text>
<text text-anchor="start" x="770.613" y="-228.3" font-family="Times,serif" font-size="14.00">start_time :time</text>
<text text-anchor="start" x="770.613" y="-214.3" font-family="Times,serif" font-size="14.00">end_time :time</text>
<text text-anchor="start" x="770.613" y="-200.3" font-family="Times,serif" font-size="14.00">place_id :integer</text>
<text text-anchor="start" x="770.613" y="-186.3" font-family="Times,serif" font-size="14.00">created_at :datetime</text>
<text text-anchor="start" x="770.613" y="-172.3" font-family="Times,serif" font-size="14.00">updated_at :datetime</text>
</g>
<!-- Place&#45;&gt;Schedule -->
<g id="edge2" class="edge"><title>Place&#45;&gt;Schedule</title>
<path fill="none" stroke="#6581c6" d="M815.519,-371.027C818.088,-348.373 820.744,-324.939 823.134,-303.854"/>
<ellipse fill="none" stroke="#6581c6" cx="815.047" cy="-375.195" rx="4.00001" ry="4.00001"/>
<polygon fill="#6581c6" stroke="#6581c6" points="823.158,-303.642 828.756,-294.212 823.721,-298.673 824.285,-293.705 824.285,-293.705 824.285,-293.705 823.721,-298.673 819.813,-293.198 823.158,-303.642 823.158,-303.642"/>
</g>
<!-- Service -->
<g id="node8" class="node"><title>Service</title>
<path fill="none" stroke="black" d="M930.438,-151.5C930.438,-151.5 1074.46,-151.5 1074.46,-151.5 1080.46,-151.5 1086.46,-157.5 1086.46,-163.5 1086.46,-163.5 1086.46,-295.5 1086.46,-295.5 1086.46,-301.5 1080.46,-307.5 1074.46,-307.5 1074.46,-307.5 930.438,-307.5 930.438,-307.5 924.438,-307.5 918.438,-301.5 918.438,-295.5 918.438,-295.5 918.438,-163.5 918.438,-163.5 918.438,-157.5 924.438,-151.5 930.438,-151.5"/>
<text text-anchor="middle" x="1002.45" y="-292.3" font-family="Times,serif" font-size="14.00">Service</text>
<polyline fill="none" stroke="black" points="918.438,-285.5 1086.46,-285.5 "/>
<text text-anchor="start" x="926.438" y="-270.3" font-family="Times,serif" font-size="14.00">id :integer</text>
<text text-anchor="start" x="926.438" y="-256.3" font-family="Times,serif" font-size="14.00">name :string</text>
<text text-anchor="start" x="926.438" y="-242.3" font-family="Times,serif" font-size="14.00">minimum_amount :integer</text>
<text text-anchor="start" x="926.438" y="-228.3" font-family="Times,serif" font-size="14.00">maximum_amount :integer</text>
<text text-anchor="start" x="926.438" y="-214.3" font-family="Times,serif" font-size="14.00">place_id :integer</text>
<text text-anchor="start" x="926.438" y="-200.3" font-family="Times,serif" font-size="14.00">created_at :datetime</text>
<text text-anchor="start" x="926.438" y="-186.3" font-family="Times,serif" font-size="14.00">updated_at :datetime</text>
<text text-anchor="start" x="926.438" y="-172.3" font-family="Times,serif" font-size="14.00">kind :integer</text>
<text text-anchor="start" x="926.438" y="-158.3" font-family="Times,serif" font-size="14.00">duration :time</text>
</g>
<!-- Place&#45;&gt;Service -->
<g id="edge3" class="edge"><title>Place&#45;&gt;Service</title>
<path fill="none" stroke="#62523e" d="M884.212,-377.258C900.711,-356.779 917.923,-335.415 933.944,-315.53"/>
<ellipse fill="none" stroke="#62523e" cx="881.476" cy="-380.653" rx="4.00002" ry="4.00002"/>
<polygon fill="#62523e" stroke="#62523e" points="933.983,-315.482 943.761,-310.518 937.12,-311.588 940.257,-307.694 940.257,-307.694 940.257,-307.694 937.12,-311.588 936.752,-304.871 933.983,-315.482 933.983,-315.482"/>
</g>
<!-- User -->
<g id="node9" class="node"><title>User</title>
<path fill="none" stroke="black" d="M460.172,-344.5C460.172,-344.5 640.728,-344.5 640.728,-344.5 646.728,-344.5 652.728,-350.5 652.728,-356.5 652.728,-356.5 652.728,-600.5 652.728,-600.5 652.728,-606.5 646.728,-612.5 640.728,-612.5 640.728,-612.5 460.172,-612.5 460.172,-612.5 454.172,-612.5 448.172,-606.5 448.172,-600.5 448.172,-600.5 448.172,-356.5 448.172,-356.5 448.172,-350.5 454.172,-344.5 460.172,-344.5"/>
<text text-anchor="middle" x="550.45" y="-597.3" font-family="Times,serif" font-size="14.00">User</text>
<polyline fill="none" stroke="black" points="448.172,-590.5 652.728,-590.5 "/>
<text text-anchor="start" x="456.172" y="-575.3" font-family="Times,serif" font-size="14.00">id :integer</text>
<text text-anchor="start" x="456.172" y="-561.3" font-family="Times,serif" font-size="14.00">email :string</text>
<text text-anchor="start" x="456.172" y="-547.3" font-family="Times,serif" font-size="14.00">encrypted_password :string</text>
<text text-anchor="start" x="456.172" y="-533.3" font-family="Times,serif" font-size="14.00">first_name :string</text>
<text text-anchor="start" x="456.172" y="-519.3" font-family="Times,serif" font-size="14.00">last_name :string</text>
<text text-anchor="start" x="456.172" y="-505.3" font-family="Times,serif" font-size="14.00">phone_number :string</text>
<text text-anchor="start" x="456.172" y="-491.3" font-family="Times,serif" font-size="14.00">gender :string</text>
<text text-anchor="start" x="456.172" y="-477.3" font-family="Times,serif" font-size="14.00">reset_password_token :string</text>
<text text-anchor="start" x="456.172" y="-463.3" font-family="Times,serif" font-size="14.00">reset_password_sent_at :datetime</text>
<text text-anchor="start" x="456.172" y="-449.3" font-family="Times,serif" font-size="14.00">remember_created_at :datetime</text>
<text text-anchor="start" x="456.172" y="-435.3" font-family="Times,serif" font-size="14.00">sign_in_count :integer</text>
<text text-anchor="start" x="456.172" y="-421.3" font-family="Times,serif" font-size="14.00">current_sign_in_at :datetime</text>
<text text-anchor="start" x="456.172" y="-407.3" font-family="Times,serif" font-size="14.00">last_sign_in_at :datetime</text>
<text text-anchor="start" x="456.172" y="-393.3" font-family="Times,serif" font-size="14.00">current_sign_in_ip :inet</text>
<text text-anchor="start" x="456.172" y="-379.3" font-family="Times,serif" font-size="14.00">last_sign_in_ip :inet</text>
<text text-anchor="start" x="456.172" y="-365.3" font-family="Times,serif" font-size="14.00">created_at :datetime</text>
<text text-anchor="start" x="456.172" y="-351.3" font-family="Times,serif" font-size="14.00">updated_at :datetime</text>
</g>
<!-- User&#45;&gt;Booking -->
<g id="edge6" class="edge"><title>User&#45;&gt;Booking</title>
<path fill="none" stroke="#06a571" d="M533.855,-336.157C532.832,-327.445 531.823,-318.853 530.85,-310.561"/>
<ellipse fill="none" stroke="#06a571" cx="534.337" cy="-340.267" rx="4.00001" ry="4.00001"/>
<polygon fill="#06a571" stroke="#06a571" points="530.847,-310.538 534.15,-300.082 530.264,-305.573 529.681,-300.607 529.681,-300.607 529.681,-300.607 530.264,-305.573 525.212,-301.131 530.847,-310.538 530.847,-310.538"/>
</g>
<!-- User&#45;&gt;Rating -->
<g id="edge7" class="edge"><title>User&#45;&gt;Rating</title>
<path fill="none" stroke="#768809" d="M623.193,-337.129C630.617,-322.803 637.88,-308.786 644.575,-295.868"/>
<ellipse fill="none" stroke="#768809" cx="621.348" cy="-340.689" rx="4.00002" ry="4.00002"/>
<polygon fill="#768809" stroke="#768809" points="644.741,-295.546 653.338,-288.738 647.042,-291.107 649.343,-286.668 649.343,-286.668 649.343,-286.668 647.042,-291.107 645.347,-284.597 644.741,-295.546 644.741,-295.546"/>
</g>
</g>
</svg>
