<?xml version="1.0" encoding="UTF-8" standalone="no"?>
<!DOCTYPE svg PUBLIC "-//W3C//DTD SVG 1.1//EN"
 "http://www.w3.org/Graphics/SVG/1.1/DTD/svg11.dtd">
<!-- Generated by graphviz version 2.38.0 (20140413.2041)
 -->
<!-- Title: models_diagram Pages: 1 -->
<svg width="483pt" height="225pt"
 viewBox="0.00 0.00 483.31 225.00" xmlns="http://www.w3.org/2000/svg" xmlns:xlink="http://www.w3.org/1999/xlink">
<g id="graph0" class="graph" transform="scale(1 1) rotate(0) translate(4 221)">
<title>models_diagram</title>
<polygon fill="white" stroke="none" points="-4,4 -4,-221 479.312,-221 479.312,4 -4,4"/>
<!-- _diagram_info -->
<g id="node1" class="node"><title>_diagram_info</title>
<text text-anchor="start" x="8" y="-202.6" font-family="Times,serif" font-size="13.00">Models diagram</text>
<text text-anchor="start" x="8" y="-189.6" font-family="Times,serif" font-size="13.00">Date: Oct 21 2014 &#45; 21:22</text>
<text text-anchor="start" x="8" y="-176.6" font-family="Times,serif" font-size="13.00">Migration version: 20141020054025</text>
<text text-anchor="start" x="8" y="-163.6" font-family="Times,serif" font-size="13.00">Generated by RailRoady 1.2.0</text>
<text text-anchor="start" x="8" y="-150.6" font-family="Times,serif" font-size="13.00">http://railroady.prestonlee.com</text>
</g>
<!-- Admin -->
<g id="node2" class="node"><title>Admin</title>
<ellipse fill="none" stroke="black" cx="259.688" cy="-180.5" rx="34.8458" ry="18"/>
<text text-anchor="middle" x="259.688" y="-176.3" font-family="Times,serif" font-size="14.00">Admin</text>
</g>
<!-- BookedService -->
<g id="node3" class="node"><title>BookedService</title>
<ellipse fill="none" stroke="black" cx="240.688" cy="-18" rx="64.27" ry="18"/>
<text text-anchor="middle" x="240.688" y="-13.8" font-family="Times,serif" font-size="14.00">BookedService</text>
</g>
<!-- Booking -->
<g id="node4" class="node"><title>Booking</title>
<ellipse fill="none" stroke="black" cx="240.688" cy="-90" rx="40.6421" ry="18"/>
<text text-anchor="middle" x="240.688" y="-85.8" font-family="Times,serif" font-size="14.00">Booking</text>
</g>
<!-- Booking&#45;&gt;BookedService -->
<g id="edge1" class="edge"><title>Booking&#45;&gt;BookedService</title>
<path fill="none" stroke="#6d5b07" d="M240.688,-63.6398C240.688,-58.0629 240.688,-52.1319 240.688,-46.4761"/>
<ellipse fill="none" stroke="#6d5b07" cx="240.688" cy="-67.6966" rx="4" ry="4"/>
<polygon fill="#6d5b07" stroke="#6d5b07" points="240.688,-46.1043 245.188,-36.1043 240.688,-41.1043 240.688,-36.1043 240.688,-36.1043 240.688,-36.1043 240.688,-41.1043 236.188,-36.1044 240.688,-46.1043 240.688,-46.1043"/>
</g>
<!-- Place -->
<g id="node5" class="node"><title>Place</title>
<ellipse fill="none" stroke="black" cx="341.688" cy="-180.5" rx="29.0172" ry="18"/>
<text text-anchor="middle" x="341.688" y="-176.3" font-family="Times,serif" font-size="14.00">Place</text>
</g>
<!-- Place&#45;&gt;Booking -->
<g id="edge4" class="edge"><title>Place&#45;&gt;Booking</title>
<path fill="none" stroke="#07e7aa" d="M320.264,-159.121C314.901,-154.121 309.126,-148.822 303.688,-144 291.812,-133.47 278.385,-122.103 266.987,-112.606"/>
<ellipse fill="none" stroke="#07e7aa" cx="323.408" cy="-162.07" rx="4.00002" ry="4.00002"/>
<polygon fill="#07e7aa" stroke="#07e7aa" points="266.793,-112.445 261.97,-102.597 262.945,-109.253 259.097,-106.06 259.097,-106.06 259.097,-106.06 262.945,-109.253 256.224,-109.523 266.793,-112.445 266.793,-112.445"/>
</g>
<!-- Schedule -->
<g id="node6" class="node"><title>Schedule</title>
<ellipse fill="none" stroke="black" cx="341.688" cy="-90" rx="42.5456" ry="18"/>
<text text-anchor="middle" x="341.688" y="-85.8" font-family="Times,serif" font-size="14.00">Schedule</text>
</g>
<!-- Place&#45;&gt;Schedule -->
<g id="edge2" class="edge"><title>Place&#45;&gt;Schedule</title>
<path fill="none" stroke="#ccbe64" d="M341.688,-154.189C341.688,-142.971 341.688,-129.752 341.688,-118.311"/>
<ellipse fill="none" stroke="#ccbe64" cx="341.688" cy="-158.436" rx="4" ry="4"/>
<polygon fill="#ccbe64" stroke="#ccbe64" points="341.688,-118.011 346.188,-108.011 341.688,-113.011 341.688,-108.011 341.688,-108.011 341.688,-108.011 341.688,-113.011 337.188,-108.011 341.688,-118.011 341.688,-118.011"/>
</g>
<!-- Service -->
<g id="node7" class="node"><title>Service</title>
<ellipse fill="none" stroke="black" cx="438.688" cy="-90" rx="36.7489" ry="18"/>
<text text-anchor="middle" x="438.688" y="-85.8" font-family="Times,serif" font-size="14.00">Service</text>
</g>
<!-- Place&#45;&gt;Service -->
<g id="edge3" class="edge"><title>Place&#45;&gt;Service</title>
<path fill="none" stroke="#c81321" d="M363.89,-159.243C378.949,-145.504 398.855,-127.342 414.346,-113.208"/>
<ellipse fill="none" stroke="#c81321" cx="360.66" cy="-162.19" rx="4.00002" ry="4.00002"/>
<polygon fill="#c81321" stroke="#c81321" points="414.608,-112.969 425.029,-109.554 418.302,-109.599 421.996,-106.229 421.996,-106.229 421.996,-106.229 418.302,-109.599 418.963,-102.905 414.608,-112.969 414.608,-112.969"/>
</g>
</g>
</svg>
