<?xml version="1.0" encoding="UTF-8" standalone="no"?>
<!DOCTYPE svg PUBLIC "-//W3C//DTD SVG 1.1//EN"
 "http://www.w3.org/Graphics/SVG/1.1/DTD/svg11.dtd">
<!-- Generated by graphviz version 2.38.0 (20140413.2041)
 -->
<!-- Title: models_diagram Pages: 1 -->
<svg width="621pt" height="225pt"
 viewBox="0.00 0.00 621.07 225.00" xmlns="http://www.w3.org/2000/svg" xmlns:xlink="http://www.w3.org/1999/xlink">
<g id="graph0" class="graph" transform="scale(1 1) rotate(0) translate(4 221)">
<title>models_diagram</title>
<polygon fill="white" stroke="none" points="-4,4 -4,-221 617.074,-221 617.074,4 -4,4"/>
<!-- _diagram_info -->
<g id="node1" class="node"><title>_diagram_info</title>
<text text-anchor="start" x="8" y="-202.6" font-family="Times,serif" font-size="13.00">Models diagram</text>
<text text-anchor="start" x="8" y="-189.6" font-family="Times,serif" font-size="13.00">Date: Nov 09 2014 &#45; 23:17</text>
<text text-anchor="start" x="8" y="-176.6" font-family="Times,serif" font-size="13.00">Migration version: 20141108234944</text>
<text text-anchor="start" x="8" y="-163.6" font-family="Times,serif" font-size="13.00">Generated by RailRoady 1.2.0</text>
<text text-anchor="start" x="8" y="-150.6" font-family="Times,serif" font-size="13.00">http://railroady.prestonlee.com</text>
</g>
<!-- Admin -->
<g id="node2" class="node"><title>Admin</title>
<ellipse fill="none" stroke="black" cx="259.45" cy="-180.5" rx="34.8458" ry="18"/>
<text text-anchor="middle" x="259.45" y="-176.3" font-family="Times,serif" font-size="14.00">Admin</text>
</g>
<!-- BookedService -->
<g id="node3" class="node"><title>BookedService</title>
<ellipse fill="none" stroke="black" cx="293.45" cy="-18" rx="64.27" ry="18"/>
<text text-anchor="middle" x="293.45" y="-13.8" font-family="Times,serif" font-size="14.00">BookedService</text>
</g>
<!-- Booking -->
<g id="node4" class="node"><title>Booking</title>
<ellipse fill="none" stroke="black" cx="293.45" cy="-90" rx="40.6421" ry="18"/>
<text text-anchor="middle" x="293.45" y="-85.8" font-family="Times,serif" font-size="14.00">Booking</text>
</g>
<!-- Booking&#45;&gt;BookedService -->
<g id="edge1" class="edge"><title>Booking&#45;&gt;BookedService</title>
<path fill="none" stroke="#025a01" d="M293.45,-63.6398C293.45,-58.0629 293.45,-52.1319 293.45,-46.4761"/>
<ellipse fill="none" stroke="#025a01" cx="293.45" cy="-67.6966" rx="4" ry="4"/>
<polygon fill="#025a01" stroke="#025a01" points="293.45,-46.1043 297.95,-36.1043 293.45,-41.1043 293.45,-36.1043 293.45,-36.1043 293.45,-36.1043 293.45,-41.1043 288.95,-36.1044 293.45,-46.1043 293.45,-46.1043"/>
</g>
<!-- Place -->
<g id="node5" class="node"><title>Place</title>
<ellipse fill="none" stroke="black" cx="446.45" cy="-180.5" rx="29.0172" ry="18"/>
<text text-anchor="middle" x="446.45" y="-176.3" font-family="Times,serif" font-size="14.00">Place</text>
</g>
<!-- Place&#45;&gt;Booking -->
<g id="edge4" class="edge"><title>Place&#45;&gt;Booking</title>
<path fill="none" stroke="#763e5f" d="M418.813,-163.514C392.769,-148.449 353.73,-125.868 326.149,-109.914"/>
<ellipse fill="none" stroke="#763e5f" cx="422.353" cy="-165.562" rx="4.00002" ry="4.00002"/>
<polygon fill="#763e5f" stroke="#763e5f" points="325.926,-109.785 319.523,-100.883 321.597,-107.282 317.269,-104.778 317.269,-104.778 317.269,-104.778 321.597,-107.282 315.016,-108.673 325.926,-109.785 325.926,-109.785"/>
</g>
<!-- Rating -->
<g id="node6" class="node"><title>Rating</title>
<ellipse fill="none" stroke="black" cx="385.45" cy="-90" rx="33.877" ry="18"/>
<text text-anchor="middle" x="385.45" y="-85.8" font-family="Times,serif" font-size="14.00">Rating</text>
</g>
<!-- Place&#45;&gt;Rating -->
<g id="edge5" class="edge"><title>Place&#45;&gt;Rating</title>
<path fill="none" stroke="#db8af0" d="M430.892,-156.928C422.213,-144.337 411.39,-128.634 402.483,-115.713"/>
<ellipse fill="none" stroke="#db8af0" cx="433.274" cy="-160.385" rx="4.00002" ry="4.00002"/>
<polygon fill="#db8af0" stroke="#db8af0" points="402.349,-115.517 400.379,-104.73 399.511,-111.401 396.674,-107.284 396.674,-107.284 396.674,-107.284 399.511,-111.401 392.968,-109.838 402.349,-115.517 402.349,-115.517"/>
</g>
<!-- Schedule -->
<g id="node7" class="node"><title>Schedule</title>
<ellipse fill="none" stroke="black" cx="479.45" cy="-90" rx="42.5456" ry="18"/>
<text text-anchor="middle" x="479.45" y="-85.8" font-family="Times,serif" font-size="14.00">Schedule</text>
</g>
<!-- Place&#45;&gt;Schedule -->
<g id="edge2" class="edge"><title>Place&#45;&gt;Schedule</title>
<path fill="none" stroke="#be5e3b" d="M455.594,-154.976C459.961,-143.265 465.192,-129.238 469.641,-117.306"/>
<ellipse fill="none" stroke="#be5e3b" cx="454.054" cy="-159.106" rx="4.00001" ry="4.00001"/>
<polygon fill="#be5e3b" stroke="#be5e3b" points="469.664,-117.242 477.375,-109.445 471.411,-112.557 473.158,-107.872 473.158,-107.872 473.158,-107.872 471.411,-112.557 468.942,-106.3 469.664,-117.242 469.664,-117.242"/>
</g>
<!-- Service -->
<g id="node8" class="node"><title>Service</title>
<ellipse fill="none" stroke="black" cx="576.45" cy="-90" rx="36.7489" ry="18"/>
<text text-anchor="middle" x="576.45" y="-85.8" font-family="Times,serif" font-size="14.00">Service</text>
</g>
<!-- Place&#45;&gt;Service -->
<g id="edge3" class="edge"><title>Place&#45;&gt;Service</title>
<path fill="none" stroke="#06f804" d="M472.241,-161.942C493.883,-147.209 524.784,-126.172 547.316,-110.833"/>
<ellipse fill="none" stroke="#06f804" cx="468.659" cy="-164.38" rx="4.00002" ry="4.00002"/>
<polygon fill="#06f804" stroke="#06f804" points="547.538,-110.682 558.337,-108.774 551.672,-107.868 555.805,-105.054 555.805,-105.054 555.805,-105.054 551.672,-107.868 553.272,-101.335 547.538,-110.682 547.538,-110.682"/>
</g>
<!-- User -->
<g id="node9" class="node"><title>User</title>
<ellipse fill="none" stroke="black" cx="339.45" cy="-180.5" rx="27" ry="18"/>
<text text-anchor="middle" x="339.45" y="-176.3" font-family="Times,serif" font-size="14.00">User</text>
</g>
<!-- User&#45;&gt;Booking -->
<g id="edge6" class="edge"><title>User&#45;&gt;Booking</title>
<path fill="none" stroke="#493896" d="M327.113,-155.765C320.831,-143.679 313.186,-128.97 306.77,-116.626"/>
<ellipse fill="none" stroke="#493896" cx="329.168" cy="-159.719" rx="4.00002" ry="4.00002"/>
<polygon fill="#493896" stroke="#493896" points="306.758,-116.604 306.139,-105.655 304.452,-112.167 302.146,-107.731 302.146,-107.731 302.146,-107.731 304.452,-112.167 298.153,-109.806 306.758,-116.604 306.758,-116.604"/>
</g>
<!-- User&#45;&gt;Rating -->
<g id="edge7" class="edge"><title>User&#45;&gt;Rating</title>
<path fill="none" stroke="#25d7d7" d="M351.595,-156.134C357.946,-143.914 365.731,-128.938 372.233,-116.428"/>
<ellipse fill="none" stroke="#25d7d7" cx="349.732" cy="-159.719" rx="4.00002" ry="4.00002"/>
<polygon fill="#25d7d7" stroke="#25d7d7" points="372.298,-116.302 380.903,-109.504 374.604,-111.866 376.91,-107.429 376.91,-107.429 376.91,-107.429 374.604,-111.866 372.917,-105.354 372.298,-116.302 372.298,-116.302"/>
</g>
</g>
</svg>
