<?xml version="1.0" encoding="UTF-8" standalone="no"?>
<!DOCTYPE svg PUBLIC "-//W3C//DTD SVG 1.1//EN"
 "http://www.w3.org/Graphics/SVG/1.1/DTD/svg11.dtd">
<!-- Generated by graphviz version 2.38.0 (20140413.2041)
 -->
<!-- Title: models_diagram Pages: 1 -->
<svg width="779pt" height="565pt"
 viewBox="0.00 0.00 778.70 565.00" xmlns="http://www.w3.org/2000/svg" xmlns:xlink="http://www.w3.org/1999/xlink">
<g id="graph0" class="graph" transform="scale(1 1) rotate(0) translate(4 561)">
<title>models_diagram</title>
<polygon fill="white" stroke="none" points="-4,4 -4,-561 774.7,-561 774.7,4 -4,4"/>
<!-- _diagram_info -->
<g id="node1" class="node"><title>_diagram_info</title>
<text text-anchor="start" x="8" y="-472.6" font-family="Times,serif" font-size="13.00">Models diagram</text>
<text text-anchor="start" x="8" y="-459.6" font-family="Times,serif" font-size="13.00">Date: Oct 21 2014 &#45; 21:22</text>
<text text-anchor="start" x="8" y="-446.6" font-family="Times,serif" font-size="13.00">Migration version: 20141020054025</text>
<text text-anchor="start" x="8" y="-433.6" font-family="Times,serif" font-size="13.00">Generated by RailRoady 1.2.0</text>
<text text-anchor="start" x="8" y="-420.6" font-family="Times,serif" font-size="13.00">http://railroady.prestonlee.com</text>
</g>
<!-- Admin -->
<g id="node2" class="node"><title>Admin</title>
<path fill="none" stroke="black" d="M237.41,-344.5C237.41,-344.5 417.966,-344.5 417.966,-344.5 423.966,-344.5 429.966,-350.5 429.966,-356.5 429.966,-356.5 429.966,-544.5 429.966,-544.5 429.966,-550.5 423.966,-556.5 417.966,-556.5 417.966,-556.5 237.41,-556.5 237.41,-556.5 231.41,-556.5 225.41,-550.5 225.41,-544.5 225.41,-544.5 225.41,-356.5 225.41,-356.5 225.41,-350.5 231.41,-344.5 237.41,-344.5"/>
<text text-anchor="middle" x="327.688" y="-541.3" font-family="Times,serif" font-size="14.00">Admin</text>
<polyline fill="none" stroke="black" points="225.41,-534.5 429.966,-534.5 "/>
<text text-anchor="start" x="233.41" y="-519.3" font-family="Times,serif" font-size="14.00">id :integer</text>
<text text-anchor="start" x="233.41" y="-505.3" font-family="Times,serif" font-size="14.00">email :string</text>
<text text-anchor="start" x="233.41" y="-491.3" font-family="Times,serif" font-size="14.00">encrypted_password :string</text>
<text text-anchor="start" x="233.41" y="-477.3" font-family="Times,serif" font-size="14.00">reset_password_token :string</text>
<text text-anchor="start" x="233.41" y="-463.3" font-family="Times,serif" font-size="14.00">reset_password_sent_at :datetime</text>
<text text-anchor="start" x="233.41" y="-449.3" font-family="Times,serif" font-size="14.00">remember_created_at :datetime</text>
<text text-anchor="start" x="233.41" y="-435.3" font-family="Times,serif" font-size="14.00">sign_in_count :integer</text>
<text text-anchor="start" x="233.41" y="-421.3" font-family="Times,serif" font-size="14.00">current_sign_in_at :datetime</text>
<text text-anchor="start" x="233.41" y="-407.3" font-family="Times,serif" font-size="14.00">last_sign_in_at :datetime</text>
<text text-anchor="start" x="233.41" y="-393.3" font-family="Times,serif" font-size="14.00">current_sign_in_ip :inet</text>
<text text-anchor="start" x="233.41" y="-379.3" font-family="Times,serif" font-size="14.00">last_sign_in_ip :inet</text>
<text text-anchor="start" x="233.41" y="-365.3" font-family="Times,serif" font-size="14.00">created_at :datetime</text>
<text text-anchor="start" x="233.41" y="-351.3" font-family="Times,serif" font-size="14.00">updated_at :datetime</text>
</g>
<!-- BookedService -->
<g id="node3" class="node"><title>BookedService</title>
<path fill="none" stroke="black" d="M296.903,-0.5C296.903,-0.5 414.472,-0.5 414.472,-0.5 420.472,-0.5 426.472,-6.5 426.472,-12.5 426.472,-12.5 426.472,-102.5 426.472,-102.5 426.472,-108.5 420.472,-114.5 414.472,-114.5 414.472,-114.5 296.903,-114.5 296.903,-114.5 290.903,-114.5 284.903,-108.5 284.903,-102.5 284.903,-102.5 284.903,-12.5 284.903,-12.5 284.903,-6.5 290.903,-0.5 296.903,-0.5"/>
<text text-anchor="middle" x="355.688" y="-99.3" font-family="Times,serif" font-size="14.00">BookedService</text>
<polyline fill="none" stroke="black" points="284.903,-92.5 426.472,-92.5 "/>
<text text-anchor="start" x="292.903" y="-77.3" font-family="Times,serif" font-size="14.00">id :integer</text>
<text text-anchor="start" x="292.903" y="-63.3" font-family="Times,serif" font-size="14.00">booking_id :integer</text>
<text text-anchor="start" x="292.903" y="-49.3" font-family="Times,serif" font-size="14.00">service_name :string</text>
<text text-anchor="start" x="292.903" y="-35.3" font-family="Times,serif" font-size="14.00">service_duration :time</text>
<text text-anchor="start" x="292.903" y="-21.3" font-family="Times,serif" font-size="14.00">created_at :datetime</text>
<text text-anchor="start" x="292.903" y="-7.3" font-family="Times,serif" font-size="14.00">updated_at :datetime</text>
</g>
<!-- Booking -->
<g id="node4" class="node"><title>Booking</title>
<path fill="none" stroke="black" d="M294.958,-165.5C294.958,-165.5 416.417,-165.5 416.417,-165.5 422.417,-165.5 428.417,-171.5 428.417,-177.5 428.417,-177.5 428.417,-281.5 428.417,-281.5 428.417,-287.5 422.417,-293.5 416.417,-293.5 416.417,-293.5 294.958,-293.5 294.958,-293.5 288.958,-293.5 282.958,-287.5 282.958,-281.5 282.958,-281.5 282.958,-177.5 282.958,-177.5 282.958,-171.5 288.958,-165.5 294.958,-165.5"/>
<text text-anchor="middle" x="355.688" y="-278.3" font-family="Times,serif" font-size="14.00">Booking</text>
<polyline fill="none" stroke="black" points="282.958,-271.5 428.417,-271.5 "/>
<text text-anchor="start" x="290.958" y="-256.3" font-family="Times,serif" font-size="14.00">id :integer</text>
<text text-anchor="start" x="290.958" y="-242.3" font-family="Times,serif" font-size="14.00">user_id :integer</text>
<text text-anchor="start" x="290.958" y="-228.3" font-family="Times,serif" font-size="14.00">place_id :integer</text>
<text text-anchor="start" x="290.958" y="-214.3" font-family="Times,serif" font-size="14.00">date :datetime</text>
<text text-anchor="start" x="290.958" y="-200.3" font-family="Times,serif" font-size="14.00">created_at :datetime</text>
<text text-anchor="start" x="290.958" y="-186.3" font-family="Times,serif" font-size="14.00">updated_at :datetime</text>
<text text-anchor="start" x="290.958" y="-172.3" font-family="Times,serif" font-size="14.00">confirmed_at :datetime</text>
</g>
<!-- Booking&#45;&gt;BookedService -->
<g id="edge1" class="edge"><title>Booking&#45;&gt;BookedService</title>
<path fill="none" stroke="#b40892" d="M355.688,-156.937C355.688,-146.213 355.688,-135.196 355.688,-124.593"/>
<ellipse fill="none" stroke="#b40892" cx="355.688" cy="-161.198" rx="4" ry="4"/>
<polygon fill="#b40892" stroke="#b40892" points="355.688,-124.577 360.188,-114.577 355.688,-119.577 355.688,-114.577 355.688,-114.577 355.688,-114.577 355.688,-119.577 351.188,-114.577 355.688,-124.577 355.688,-124.577"/>
</g>
<!-- Place -->
<g id="node5" class="node"><title>Place</title>
<path fill="none" stroke="black" d="M460,-379.5C460,-379.5 571.376,-379.5 571.376,-379.5 577.376,-379.5 583.376,-385.5 583.376,-391.5 583.376,-391.5 583.376,-509.5 583.376,-509.5 583.376,-515.5 577.376,-521.5 571.376,-521.5 571.376,-521.5 460,-521.5 460,-521.5 454,-521.5 448,-515.5 448,-509.5 448,-509.5 448,-391.5 448,-391.5 448,-385.5 454,-379.5 460,-379.5"/>
<text text-anchor="middle" x="515.688" y="-506.3" font-family="Times,serif" font-size="14.00">Place</text>
<polyline fill="none" stroke="black" points="448,-499.5 583.376,-499.5 "/>
<text text-anchor="start" x="456" y="-484.3" font-family="Times,serif" font-size="14.00">id :integer</text>
<text text-anchor="start" x="456" y="-470.3" font-family="Times,serif" font-size="14.00">name :string</text>
<text text-anchor="start" x="456" y="-456.3" font-family="Times,serif" font-size="14.00">address :string</text>
<text text-anchor="start" x="456" y="-442.3" font-family="Times,serif" font-size="14.00">description :string</text>
<text text-anchor="start" x="456" y="-428.3" font-family="Times,serif" font-size="14.00">mobile_phone :string</text>
<text text-anchor="start" x="456" y="-414.3" font-family="Times,serif" font-size="14.00">land_line :string</text>
<text text-anchor="start" x="456" y="-400.3" font-family="Times,serif" font-size="14.00">created_at :datetime</text>
<text text-anchor="start" x="456" y="-386.3" font-family="Times,serif" font-size="14.00">updated_at :datetime</text>
</g>
<!-- Place&#45;&gt;Booking -->
<g id="edge4" class="edge"><title>Place&#45;&gt;Booking</title>
<path fill="none" stroke="#2ea43a" d="M459.671,-372.732C452.608,-363.058 445.481,-353.298 438.688,-344 428.696,-330.324 418.024,-315.723 407.774,-301.705"/>
<ellipse fill="none" stroke="#2ea43a" cx="462.186" cy="-376.178" rx="4.00002" ry="4.00002"/>
<polygon fill="#2ea43a" stroke="#2ea43a" points="407.698,-301.601 405.428,-290.873 404.747,-297.565 401.795,-293.529 401.795,-293.529 401.795,-293.529 404.747,-297.565 398.163,-296.185 407.698,-301.601 407.698,-301.601"/>
</g>
<!-- Schedule -->
<g id="node6" class="node"><title>Schedule</title>
<path fill="none" stroke="black" d="M458.851,-165.5C458.851,-165.5 572.524,-165.5 572.524,-165.5 578.524,-165.5 584.524,-171.5 584.524,-177.5 584.524,-177.5 584.524,-281.5 584.524,-281.5 584.524,-287.5 578.524,-293.5 572.524,-293.5 572.524,-293.5 458.851,-293.5 458.851,-293.5 452.851,-293.5 446.851,-287.5 446.851,-281.5 446.851,-281.5 446.851,-177.5 446.851,-177.5 446.851,-171.5 452.851,-165.5 458.851,-165.5"/>
<text text-anchor="middle" x="515.688" y="-278.3" font-family="Times,serif" font-size="14.00">Schedule</text>
<polyline fill="none" stroke="black" points="446.851,-271.5 584.524,-271.5 "/>
<text text-anchor="start" x="454.851" y="-256.3" font-family="Times,serif" font-size="14.00">id :integer</text>
<text text-anchor="start" x="454.851" y="-242.3" font-family="Times,serif" font-size="14.00">day_of_week :integer</text>
<text text-anchor="start" x="454.851" y="-228.3" font-family="Times,serif" font-size="14.00">start_time :time</text>
<text text-anchor="start" x="454.851" y="-214.3" font-family="Times,serif" font-size="14.00">end_time :time</text>
<text text-anchor="start" x="454.851" y="-200.3" font-family="Times,serif" font-size="14.00">place_id :integer</text>
<text text-anchor="start" x="454.851" y="-186.3" font-family="Times,serif" font-size="14.00">created_at :datetime</text>
<text text-anchor="start" x="454.851" y="-172.3" font-family="Times,serif" font-size="14.00">updated_at :datetime</text>
</g>
<!-- Place&#45;&gt;Schedule -->
<g id="edge2" class="edge"><title>Place&#45;&gt;Schedule</title>
<path fill="none" stroke="#f5d1ab" d="M515.688,-371.138C515.688,-349.178 515.688,-325.396 515.688,-303.745"/>
<ellipse fill="none" stroke="#f5d1ab" cx="515.688" cy="-375.303" rx="4" ry="4"/>
<polygon fill="#f5d1ab" stroke="#f5d1ab" points="515.688,-303.635 520.188,-293.635 515.688,-298.635 515.688,-293.635 515.688,-293.635 515.688,-293.635 515.688,-298.635 511.188,-293.635 515.688,-303.635 515.688,-303.635"/>
</g>
<!-- Service -->
<g id="node7" class="node"><title>Service</title>
<path fill="none" stroke="black" d="M614.676,-151.5C614.676,-151.5 758.7,-151.5 758.7,-151.5 764.7,-151.5 770.7,-157.5 770.7,-163.5 770.7,-163.5 770.7,-295.5 770.7,-295.5 770.7,-301.5 764.7,-307.5 758.7,-307.5 758.7,-307.5 614.676,-307.5 614.676,-307.5 608.676,-307.5 602.676,-301.5 602.676,-295.5 602.676,-295.5 602.676,-163.5 602.676,-163.5 602.676,-157.5 608.676,-151.5 614.676,-151.5"/>
<text text-anchor="middle" x="686.688" y="-292.3" font-family="Times,serif" font-size="14.00">Service</text>
<polyline fill="none" stroke="black" points="602.676,-285.5 770.7,-285.5 "/>
<text text-anchor="start" x="610.676" y="-270.3" font-family="Times,serif" font-size="14.00">id :integer</text>
<text text-anchor="start" x="610.676" y="-256.3" font-family="Times,serif" font-size="14.00">name :string</text>
<text text-anchor="start" x="610.676" y="-242.3" font-family="Times,serif" font-size="14.00">minimum_amount :integer</text>
<text text-anchor="start" x="610.676" y="-228.3" font-family="Times,serif" font-size="14.00">maximum_amount :integer</text>
<text text-anchor="start" x="610.676" y="-214.3" font-family="Times,serif" font-size="14.00">place_id :integer</text>
<text text-anchor="start" x="610.676" y="-200.3" font-family="Times,serif" font-size="14.00">created_at :datetime</text>
<text text-anchor="start" x="610.676" y="-186.3" font-family="Times,serif" font-size="14.00">updated_at :datetime</text>
<text text-anchor="start" x="610.676" y="-172.3" font-family="Times,serif" font-size="14.00">kind :integer</text>
<text text-anchor="start" x="610.676" y="-158.3" font-family="Times,serif" font-size="14.00">duration :time</text>
</g>
<!-- Place&#45;&gt;Service -->
<g id="edge3" class="edge"><title>Place&#45;&gt;Service</title>
<path fill="none" stroke="#00b74d" d="M575.578,-372.798C590.035,-354.284 605.567,-334.391 620.302,-315.52"/>
<ellipse fill="none" stroke="#00b74d" cx="572.961" cy="-376.151" rx="4.00002" ry="4.00002"/>
<polygon fill="#00b74d" stroke="#00b74d" points="620.408,-315.384 630.109,-310.272 623.485,-311.443 626.563,-307.502 626.563,-307.502 626.563,-307.502 623.485,-311.443 623.016,-304.733 620.408,-315.384 620.408,-315.384"/>
</g>
</g>
</svg>
